<svg width="24" height="24" viewBox="0 0 24 24" fill="none" xmlns="http://www.w3.org/2000/svg">
<path d="M11.3048 2.65633C8.24192 6.65104 5.98528 10.7227 5.27628 13.5466C5.07776 14.3325 5.02509 14.7053 5.00483 15.4912C4.96027 16.9417 5.22361 18.1773 5.80702 19.2955C6.66592 20.9404 8.29864 22.1072 10.3325 22.5205C11.0009 22.6582 11.7586 22.7109 12.3501 22.6623C14.1448 22.5124 15.7087 21.8317 16.8228 20.7135C17.8641 19.6683 18.4515 18.3475 18.65 16.6297C18.7108 16.0909 18.6743 14.8673 18.5852 14.3771C18.0221 11.3061 15.7857 7.10885 12.2488 2.49427C12.0422 2.22283 11.8558 2 11.8396 2C11.8234 2 11.5843 2.29575 11.3048 2.65633ZM8.33916 11.7477C8.22572 12.4081 8.18115 13.3197 8.23382 13.9679C8.3351 15.2927 8.43234 15.5439 9.15754 16.3056C9.66802 16.8485 9.79362 17.047 9.86249 17.4359C9.93542 17.8694 9.73285 18.3759 9.39253 18.6068C9.11703 18.7932 8.96713 18.8337 8.57819 18.8337C8.26218 18.8337 8.1852 18.8175 7.98263 18.7202C7.71929 18.5906 7.38707 18.2543 7.24122 17.9586C6.99813 17.4845 6.81582 16.6459 6.81582 16.0098C6.81582 15.3535 7.04675 14.3568 7.40328 13.4655C7.58964 12.9996 8.36346 11.3588 8.38777 11.379C8.39588 11.3831 8.37157 11.5533 8.33916 11.7477Z" fill="black"/>
</svg>
