<svg xmlns="http://www.w3.org/2000/svg" version="1.1" xmlns:xlink="http://www.w3.org/1999/xlink" xmlns:svgjs="http://svgjs.dev/svgjs" viewBox="0 0 800 800"><defs><linearGradient x1="50%" y1="0%" x2="50%" y2="100%" id="ccchaos-grad"><stop stop-color="hsl(206, 75%, 49%)" stop-opacity="1" offset="0%"></stop><stop stop-color="hsl(331, 90%, 56%)" stop-opacity="1" offset="100%"></stop></linearGradient></defs><g stroke-width="2" stroke="url(#ccchaos-grad)" fill="none" stroke-linecap="round"><path d="M379.47 57.27Q389.58 63.47 400.18 70.88 411.27 79.31 422.79 88.44 434.72 97.89 446.99 107.22 459.55 116 472.3 123.84 485.19 130.44 498.1 135.61 510.96 139.31 523.68 141.67 536.15 142.92 548.29 143.44 560.01 143.7 571.24 144.18 581.9 145.39 591.95 147.73 601.33 151.53 610.01 156.97 617.99 164.05 625.25 172.61 631.83 182.35 637.74 192.81 643.05 203.48 647.82 213.78 655.92 230.39 663.24 242.14 663.84 250.7 653.78 267.08 649.38 277.63 648.15 288.18 650.18 298.73 655.3 309.28 663.07 319.83 672.82 330.38 683.71 340.93 694.79 351.48 705.12 362.03 713.79 372.57 720.07 383.12 723.4 393.67 723.51 404.22 720.38 414.77 714.28 425.32 705.73 435.87 695.49 446.42 684.43 456.97 673.5 467.52 663.65 478.07 655.73 488.62 650.42 499.17 648.18 509.71 649.21 520.26 653.41 530.81 660.43 541.36 669.65 551.91 680.28 562.46 691.41 573.01 702.07 583.56 697.73 595.84 692.82 605.61 680.66 614.36 666.29 614.17 657.77 610.06 648.49 604.93 638.47 599.83 627.78 595.8 616.45 593.8 604.56 594.56 592.2 598.57 579.45 605.99 566.41 616.62 553.19 629.95 539.87 645.17 526.57 661.29 513.37 677.19 500.38 691.79 487.67 704.1 475.33 713.38 463.41 719.18 451.97 721.39 441.04 720.26 430.67 716.42 420.85 710.73 411.58 704.29 394.91 695.07 379.67 693.26 370 688.42 360.82 687.27 352.12 689.36 343.88 693.92 336.07 699.96 328.63 706.33 314.76 714.12 301.51 713.91 295.09 707.87 288.67 698.38 282.21 685.91 275.64 671.24 268.92 655.34 261.99 639.31 254.82 624.24 247.38 611.12 239.64 600.73 231.6 593.56 223.25 589.78 214.6 589.21 205.66 591.35 196.44 595.43 186.98 600.51 177.31 605.54 167.47 609.5 157.48 611.48 147.4 610.79 137.27 607.01 127.13 600.05 117.01 590.11 115 579.48 112.91 568.85 110.91 558.22 109.17 547.59 107.85 536.96 107.06 526.33 106.87 515.69 107.29 505.06 108.29 494.43 109.78 483.8 111.63 473.17 113.69 462.54 115.77 451.91 117.7 441.28 119.31 430.65 120.45 420.02 121.04 409.39 121.02 398.76 120.4 388.13 119.22 377.5 117.58 366.87 115.64 356.24 113.55 345.61 111.51 334.98 109.67 324.35 108.21 313.72 107.24 303.09 106.86 292.46 107.1 281.83 107.92 271.2 109.27 260.57 111.03 249.94 120.82 247.36 130.79 242.97 140.93 236.71 151.2 228.74 161.58 219.37 172.03 209.07 182.51 198.36 192.98 187.81 203.39 177.95 213.69 169.25 223.84 162.04 233.79 156.48 243.5 152.58 252.93 150.17 270.67 148.61 287.37 147.84 302.31 143.8 316.27 135.83 322.77 129.31 329.06 121.52 335.2 112.75 341.24 103.39 347.26 93.88 353.33 84.65 359.51 76.12 365.88 68.59 375.99 59.78 379.47 57.27" stroke-dasharray="6 3" transform="rotate(0, 400, 400)" opacity="0.05"></path><path d="M384.08 69.5Q394.8 75.48 405.9 82.63 417.35 90.77 429.08 99.62 441.05 108.83 453.19 118 465.43 126.74 477.68 134.66 489.88 141.48 501.95 146.97 513.8 151.07 525.35 153.81 536.54 155.37 547.29 156.05 557.55 156.24 567.27 156.37 584.6 158.88 600.04 164.87 606.66 170.45 612.69 177.59 618.14 186.1 623.08 195.68 627.58 205.91 631.69 216.31 635.52 226.36 639.14 235.57 646.24 249.06 653.67 257.5 645.97 267.74 640.58 277.98 637.94 288.22 638.26 298.46 641.52 308.71 647.44 318.95 655.57 329.19 665.24 339.43 675.7 349.67 686.1 359.91 695.61 370.16 703.48 380.4 709.07 390.64 711.94 400.88 711.86 411.12 708.84 421.36 703.11 431.6 695.14 441.85 685.56 452.09 675.14 462.33 664.71 472.57 655.09 482.81 647.07 493.05 641.27 503.3 638.17 513.54 638.01 523.78 640.8 534.02 646.33 544.26 654.14 554.51 663.62 564.75 674 574.99 684.47 585.23 668.53 599.78 654.3 597.23 647.14 592.45 639.29 587.66 630.75 583.77 621.54 581.63 611.7 581.92 601.26 585.12 590.28 591.41 578.82 600.72 566.96 612.66 554.78 626.61 542.36 641.75 529.78 657.12 517.13 671.76 504.51 684.74 491.99 695.29 479.65 702.86 467.56 707.18 455.79 708.26 444.39 706.45 433.41 702.33 422.89 696.76 412.84 690.7 403.29 685.18 394.24 681.19 377.54 677.95 361.67 674.96 347.51 681.37 334.26 692.13 321.98 700.47 309.91 702.11 303.85 697.69 297.7 690.02 291.41 679.41 284.92 666.4 278.2 651.78 271.22 636.45 263.97 621.39 256.41 607.55 248.55 595.72 240.39 586.53 231.93 580.34 223.19 577.24 214.2 577.01 204.97 579.18 195.53 583.07 185.93 587.82 176.2 592.53 166.38 596.29 156.51 598.3 146.62 597.95 136.75 594.81 126.95 588.77 124.78 578.48 122.63 568.2 120.67 557.92 119.05 547.63 117.91 537.35 117.33 527.06 117.36 516.78 118 506.49 119.2 496.21 120.86 485.92 122.85 475.64 125.02 465.36 127.17 455.07 129.16 444.79 130.81 434.5 131.99 424.22 132.62 413.94 132.63 403.65 132.04 393.37 130.88 383.08 129.25 372.8 127.28 362.52 125.13 352.23 122.97 341.95 120.96 331.66 119.28 321.38 118.05 311.1 117.38 300.81 117.31 290.53 117.86 280.24 118.98 269.96 120.57 259.68 129.9 255.08 139.41 248.73 149.1 240.8 158.96 231.58 168.95 221.5 179.06 211.05 189.24 200.75 199.46 191.09 209.68 182.5 219.85 175.29 229.93 169.64 239.88 165.58 249.66 162.99 259.22 161.62 268.52 161.11 277.54 161.03 294.44 159.86 310.31 156.14 317.63 152.11 324.61 146.65 331.28 139.86 337.66 131.93 343.78 123.17 349.71 113.95 355.47 104.68 361.13 95.76 378.27 75.21 384.08 69.5" stroke-dasharray="2 5" transform="rotate(4.28, 400, 400)" opacity="0.09"></path><path d="M390.76 81.73Q401.75 87.49 412.98 94.37 424.39 102.2 435.93 110.75 447.54 119.7 459.14 128.68 470.68 137.34 482.08 145.32 493.28 152.31 504.21 158.11 514.81 162.6 525.03 165.76 534.8 167.7 544.09 168.66 560.81 168.95 575.87 169.57 588.16 174.47 598.92 183.48 603.51 190.54 607.74 198.88 611.67 208.22 615.39 218.17 618.97 228.3 622.5 238.13 629.88 254.47 637.93 266.63 631.94 276.51 628.32 286.39 627.33 296.27 629.03 306.15 633.31 316.03 639.85 325.91 648.17 335.79 657.65 345.66 667.6 355.54 677.28 365.42 685.99 375.3 693.07 385.18 698.02 395.06 700.46 404.94 700.21 414.82 697.3 424.7 691.94 434.58 684.51 444.46 675.58 454.34 665.8 464.22 655.88 474.1 646.56 483.98 638.52 493.86 632.36 503.74 628.53 513.62 627.31 523.5 628.79 533.38 632.86 543.26 639.23 553.14 647.41 563.02 632.41 574.63 613.46 569.49 605.06 572.17 596.07 577.67 586.52 585.94 576.45 596.71 565.92 609.48 554.97 623.59 543.67 638.24 532.09 652.57 520.31 665.75 508.39 677.04 496.41 685.85 484.44 691.81 472.55 694.78 460.82 694.89 449.3 692.51 438.05 688.24 427.12 682.83 416.55 677.16 406.37 672.14 396.61 668.62 379.43 665.76 365.12 662.68 353.04 668.15 341.47 677.98 321.54 686.75 306.79 680.94 300.47 672.16 293.91 660.92 287.07 647.8 279.95 633.52 272.52 618.93 264.8 604.86 256.79 592.12 248.49 581.36 239.92 573.1 231.11 567.59 222.09 564.87 212.88 564.74 203.51 566.77 194.02 570.35 184.46 574.75 174.84 579.18 165.22 582.84 155.62 585.02 140.22 579.04 132.23 563.05 130.38 553.17 128.93 543.29 128.01 533.41 127.68 523.53 127.95 513.65 128.82 503.77 130.22 493.89 132.04 484.01 134.15 474.13 136.39 464.25 138.61 454.37 140.63 444.49 142.31 434.61 143.53 424.73 144.19 414.85 144.24 404.97 143.69 395.09 142.57 385.21 140.97 375.33 138.99 365.45 136.8 355.57 134.55 345.69 132.4 335.81 130.52 325.93 129.04 316.05 128.07 306.17 127.68 296.29 127.91 286.41 128.73 276.53 130.08 266.65 138.91 260.1 147.93 252.1 157.14 242.95 166.53 233.07 176.08 222.89 185.77 212.89 195.58 203.51 205.47 195.14 215.41 188.06 225.37 182.46 235.3 178.36 245.16 175.69 254.92 174.24 264.52 173.69 273.94 173.67 283.13 173.75 300.56 172.11 317.06 167.54 324.73 163.05 332.06 157.23 339.04 150.2 345.7 142.18 352.04 133.47 358.1 124.44 363.91 115.44 369.5 106.85 385.49 87.18 390.76 81.73" stroke-dasharray="8 12" transform="rotate(8.56, 400, 400)" opacity="0.13"></path><path d="M398.65 93.96Q409.52 99.5 420.47 106.1 431.45 113.63 442.4 121.86 453.27 130.52 464 139.29 474.53 147.83 484.8 155.81 494.77 162.96 504.39 169.03 513.62 173.89 522.41 177.49 538.34 180.77 552.8 181.66 572.43 184.13 584.32 190.52 592 203.47 599.24 219.95 602.78 229.58 606.4 239.42 610.17 249.06 614.18 258.09 618.71 274.24 617 291.81 617.5 301.27 620.4 310.73 625.51 320.19 632.47 329.66 640.83 339.12 650 348.58 659.38 358.04 668.33 367.5 676.24 376.96 682.57 386.43 686.91 395.89 688.95 405.35 688.56 414.81 685.76 424.27 680.75 433.73 673.86 443.2 665.56 452.66 656.4 462.12 647.02 471.58 638.04 481.04 630.07 490.5 623.66 499.96 619.23 509.43 617.08 518.89 617.36 528.35 620.05 537.81 624.97 547.27 631.79 556.73 619.46 560.72 603.59 559.61 596.53 564.59 588.93 572.09 580.78 581.91 572.12 593.66 562.97 606.79 553.37 620.62 543.35 634.42 532.97 647.47 522.28 659.06 511.34 668.64 500.21 675.77 488.94 680.23 477.62 682.01 466.29 681.29 455.02 678.47 443.86 674.12 432.87 668.94 422.11 663.69 411.61 659.15 401.4 656.07 383.93 653.57 370.83 650.42 360.21 654.99 349.71 663.86 330.31 674.02 315.5 671.09 309.03 664.1 302.27 654.67 295.23 643.2 287.89 630.26 280.27 616.53 272.37 602.73 264.2 589.6 255.78 577.8 247.14 567.9 238.3 560.29 229.29 555.18 220.15 552.61 210.91 552.37 201.59 554.11 192.24 557.3 182.89 561.33 173.57 565.49 164.3 569.11 149.45 567.18 141.76 553.39 140.08 543.97 138.86 534.55 138.2 525.12 138.13 515.7 138.66 506.28 139.75 496.86 141.33 487.43 143.3 478.01 145.51 468.59 147.83 459.16 150.08 449.74 152.13 440.32 153.83 430.89 155.06 421.47 155.75 412.05 155.85 402.62 155.35 393.2 154.28 383.78 152.72 374.35 150.77 364.93 148.56 355.51 146.25 346.08 143.99 336.66 141.93 327.24 140.21 317.81 138.95 308.39 138.23 298.97 138.11 289.54 138.59 280.12 139.63 270.7 147.94 262.57 156.43 253.46 165.12 243.75 174 233.86 183.05 224.2 192.27 215.18 201.63 207.14 211.12 200.32 220.7 194.89 230.34 190.89 240.02 188.25 249.69 186.78 259.32 186.23 268.88 186.25 278.31 186.48 287.59 186.53 296.68 186.05 305.54 184.72 314.15 182.3 322.48 178.65 330.51 173.72 338.22 167.57 345.6 160.35 352.64 152.29 359.36 143.68 365.75 134.86 371.84 126.17 377.64 117.92 393.53 99.17 398.65 93.96" stroke-dasharray="6 0" transform="rotate(12.84, 400, 400)" opacity="0.16"></path><path d="M406.71 106.19Q427.35 117.82 447.59 132.93 467.02 149.81 485.32 166.14 502.18 179.69 517.41 188.93 530.89 193.54 542.64 194.53 552.79 194.02 561.56 194.65 569.32 198.82 576.5 208 583.59 222.22 591.12 240.09 599.61 259.06 609.54 276.2 606.61 294.2 612.31 312.19 625.25 330.18 642.27 348.17 659.23 366.17 671.98 384.16 677.43 402.15 674.23 420.14 663.17 438.14 646.95 456.13 629.52 474.12 615.13 492.11 607.3 510.1 607.92 528.1 616.26 549.69 602.53 544.97 592.12 552.08 579.9 568.16 565.75 591.29 549.72 617.45 531.98 641.7 512.76 659.52 492.42 668.17 471.35 667.5 449.98 660.02 428.71 650.28 407.94 643.55 387.99 644.34 378.19 638.2 368.42 641.19 358.33 649.82 347.61 659.09 336.03 663.9 323.41 660.5 309.68 647.56 294.84 626.44 278.95 600.81 262.18 575.52 244.72 555.24 226.8 543.13 208.67 539.97 190.57 544.02 172.72 551.5 155.29 557.78 151.26 539.93 148.88 522.07 148.71 504.21 150.8 486.36 154.65 468.5 159.31 450.65 163.65 432.79 166.6 414.94 167.46 397.08 166 379.22 162.59 361.37 158.06 343.51 153.51 325.66 150.05 307.8 148.52 289.94 149.31 272.09 165.01 253.49 181.47 234.68 198.66 218.48 216.52 206.92 234.89 200.62 253.58 198.72 272.35 199.13 290.93 199.22 309.04 196.51 326.4 189.42 342.8 177.65 358.05 162.25 372.04 145.22 384.75 128.97 401.48 110.88 406.71 106.19" stroke-dasharray="10 2" transform="rotate(17.12, 400, 400)" opacity="0.20"></path><path d="M413.89 118.42Q432.72 129.53 450.75 143.97 467.69 160.24 483.32 176.3 497.49 190.09 510.13 200.05 521.26 205.63 531 207.37 546.95 207.68 561.38 214.56 568.74 225.55 576.87 240.89 586.18 258.86 597.05 276.99 597.08 293.98 604.67 310.98 618.11 327.97 634.43 344.97 649.98 361.96 661.3 378.95 665.88 395.95 662.69 412.94 652.45 429.94 637.43 446.93 620.98 463.93 606.76 480.92 597.93 497.92 596.47 514.91 600.66 534.76 588.04 535.49 579.31 546.79 569.16 565.57 557.39 589.24 543.94 613.85 528.84 635.15 512.21 649.67 494.25 655.65 475.25 653.55 455.53 645.95 435.43 636.95 415.32 631.07 395.53 632.11 386.39 626.01 376.83 628.23 366.61 635.88 355.5 644.75 343.38 650.37 330.18 649.21 315.9 639.53 300.63 621.85 284.5 598.73 267.69 574.08 250.4 552.15 232.87 536.37 215.31 528.56 197.94 528.41 180.94 533.67 164.43 540.71 160.81 523.89 159.01 507.07 159.44 490.24 161.99 473.42 166.09 456.6 170.84 439.77 175.18 422.95 178.14 406.12 179.06 389.3 177.74 372.48 174.47 355.65 169.98 338.83 165.27 322 161.38 305.18 159.19 288.36 159.18 271.53 173.76 253.08 189.05 236.28 205.08 223.26 221.82 215.09 239.17 211.58 257 211.33 275.11 212.16 293.29 211.68 311.27 207.92 328.81 199.82 345.67 187.47 361.61 172.06 376.49 155.53 390.17 140 408.26 122.86 413.89 118.42" stroke-dasharray="13 0" transform="rotate(21.400000000000002, 400, 400)" opacity="0.24"></path><path d="M419.27 130.65Q435.84 141.24 451.38 154.99 465.73 170.61 478.77 186.31 490.48 200.22 500.89 210.83 517.97 218.7 532.87 219.07 539.82 219.35 547.05 222.73 554.93 230.41 563.8 242.6 573.98 258.4 585.72 276.03 588.37 292 597.41 307.97 611.02 323.94 626.45 339.9 640.57 355.87 650.53 371.84 654.31 387.8 651.15 403.77 641.69 419.74 627.84 435.7 612.4 451.67 598.5 467.64 588.95 483.6 585.67 499.57 585.3 520.67 572.96 528.71 565.49 543.47 556.99 563.91 547.24 587.15 536.09 609.59 523.47 627.74 509.4 639.1 493.97 642.71 477.33 639.47 459.71 631.92 441.36 623.69 422.58 618.62 403.65 619.88 394.51 613.85 384.65 615.34 373.89 622.02 362.14 630.36 349.34 636.52 335.53 637.22 320.78 630.54 305.22 616.32 289.01 596.17 272.34 573.06 255.42 550.6 238.45 532.19 221.62 520.2 205.11 515.46 189.04 517.09 173.52 522.7 170.45 506.91 169.31 491.12 170.33 475.33 173.3 459.54 177.62 443.75 182.43 427.96 186.73 412.17 189.67 396.38 190.66 380.59 189.48 364.8 186.38 349.01 181.99 333.22 177.2 317.42 172.96 301.63 170.15 285.84 169.33 270.05 182.77 253.19 196.87 239.36 211.67 229.84 227.19 224.87 243.38 223.62 260.15 224.42 277.37 225.15 294.86 223.8 312.42 218.89 329.83 209.84 346.84 197.04 363.25 181.75 378.83 165.79 393.43 151.03 413.1 134.85 419.27 130.65" stroke-dasharray="2 10" transform="rotate(25.68, 400, 400)" opacity="0.28"></path><path d="M422.13 142.88Q436.24 152.94 449.27 165.98 461.15 180.9 471.88 196.16 481.51 210.08 490.16 221.22 505.06 230.93 518.99 232.18 526.11 231.37 533.8 232.53 542.35 237.12 552.02 245.88 563.03 258.66 575.53 274.44 580.38 289.38 590.45 304.33 603.92 319.28 618.31 334.23 631.01 349.18 639.67 364.13 642.73 379.07 639.62 394.02 630.91 408.97 618.19 423.92 603.79 438.87 590.34 453.81 580.31 468.76 575.52 483.71 576.84 503.74 570.25 507.98 563.97 512.98 557.67 524.47 551.02 541.72 543.75 562.75 535.6 584.7 526.38 604.48 515.95 619.42 504.27 627.82 491.3 629.39 477.13 625.29 461.86 617.94 445.66 610.5 428.73 606.2 411.29 607.65 401.65 601.71 391.11 602.54 379.6 608.26 367.1 615.97 353.66 622.4 339.34 624.6 324.28 620.59 308.63 609.72 292.55 592.81 276.24 571.97 259.89 550.08 243.66 530.2 227.71 514.92 212.16 505.8 197.13 503.04 182.66 505.53 180.25 490.74 179.8 475.94 181.4 461.15 184.76 446.36 189.25 431.56 194.05 416.77 198.3 401.98 201.21 387.18 202.25 372.39 201.23 357.6 198.34 342.8 194.1 328.01 189.29 313.22 184.79 298.42 181.43 283.63 179.81 268.84 192.13 254.74 205.02 244.43 218.57 238.38 232.79 236.15 247.71 236.51 263.26 237.72 279.38 237.9 295.93 235.45 312.76 229.37 329.68 219.47 346.51 206.36 363.02 191.32 379.01 176 394.3 162.05 415.42 146.83 422.13 142.88" stroke-dasharray="13 7" transform="rotate(29.960000000000004, 400, 400)" opacity="0.32"></path><path d="M422.12 155.11Q433.82 164.63 444.52 176.95 454.26 191.13 463.09 205.86 471.12 219.67 478.53 231.22 492.23 242.83 506 245.55 513.56 244.27 521.87 243.86 531.15 245.82 541.59 251.24 553.32 260.54 566.42 273.41 573 287.38 583.7 301.35 596.74 315.32 610 329.29 621.27 343.26 628.73 357.23 631.13 371.21 628.08 385.18 620.09 399.15 608.47 413.12 595.12 427.09 582.25 441.07 571.96 455.04 565.96 469.01 563.67 489.21 555.15 498.81 548.71 507.9 542.53 522.42 536.34 541.04 529.86 561.61 522.87 581.56 515.15 598.38 506.55 610.15 496.93 615.88 486.23 615.74 474.43 611.06 461.56 604.04 447.69 597.4 432.94 593.81 417.46 595.42 407.01 589.6 395.62 589.84 383.32 594.63 370.15 601.63 356.2 608.09 341.59 611.43 326.46 609.7 310.97 601.95 295.28 588.4 279.56 570.36 263.97 550 248.65 529.87 233.7 512.45 219.23 499.66 205.3 492.47 191.92 490.82 190.26 476.96 190.52 463.1 192.67 449.23 196.35 435.38 200.96 421.52 205.73 407.66 209.89 393.8 212.75 379.94 213.84 366.08 212.98 352.22 210.31 338.36 206.28 324.5 201.54 310.64 196.87 296.78 193.04 282.92 190.69 269.06 201.91 258.48 213.61 251.8 225.89 248.83 238.8 248.68 252.37 249.93 266.59 250.96 281.43 250.21 296.8 246.53 312.62 239.32 328.73 228.71 344.99 215.45 361.21 200.79 377.21 186.19 392.81 173.07 414.97 158.81 422.12 155.11" stroke-dasharray="4 12" transform="rotate(34.24, 400, 400)" opacity="0.35"></path><path d="M419.21 167.35Q428.77 176.33 437.53 187.91 445.57 201.32 453 215.44 459.97 229.01 466.65 240.82 480.01 254.29 494.26 258.92 502.39 257.74 511.39 256.45 521.39 256.45 532.49 258.94 544.78 264.74 558.27 274.1 566.14 287.16 577.07 300.22 589.46 313.28 601.48 326.35 611.38 339.41 617.7 352.47 619.51 365.53 616.55 378.6 609.24 391.66 598.67 404.72 586.38 417.78 574.19 430.85 563.87 443.91 556.95 456.97 554.45 470.04 556.72 483.1 548.41 485.64 540.97 493.14 534.2 505.56 527.9 522 521.83 540.85 515.77 560.05 509.52 577.45 502.87 591.16 487.28 600.87 469.24 596.78 458.63 590.2 447.07 584.36 434.63 581.44 421.36 583.18 410 577.5 397.81 577.21 384.85 581.11 371.22 587.34 357.02 593.63 342.4 597.76 327.49 597.91 312.44 592.97 297.39 582.71 282.49 567.81 267.86 549.75 253.58 530.5 239.76 512.22 226.44 496.85 213.65 485.82 201.41 479.79 200.54 466.78 201.5 453.78 204.14 440.77 208.09 427.77 212.75 414.76 217.45 401.76 221.49 388.75 224.29 375.75 225.42 362.74 224.73 349.74 222.31 336.73 218.53 323.73 213.93 310.72 209.19 297.72 205.01 284.72 202 271.71 212.17 264.88 222.73 261.51 233.77 260.96 245.36 262.09 257.55 263.52 270.37 263.86 283.81 261.92 297.83 256.95 312.39 248.72 327.39 237.57 342.72 224.34 358.24 210.17 373.82 196.36 389.28 184.09 411.84 170.81 419.21 167.35" stroke-dasharray="4 10" transform="rotate(38.519999999999996, 400, 400)" opacity="0.39"></path><path d="M413.81 179.58Q421.65 188.02 428.96 198.85 435.83 211.45 442.39 224.89 448.8 238.1 455.2 250 461.76 259.7 468.65 266.64 484.41 271.03 502.44 269.94 513.05 268.74 524.67 268.99 537.31 271.68 550.97 277.43 559.65 289.66 570.47 301.89 582 314.12 592.75 326.35 601.32 338.58 606.59 350.81 607.88 363.04 605.01 375.27 598.36 387.5 588.8 399.73 577.57 411.97 566.13 424.2 555.98 436.43 548.44 448.66 544.49 460.89 544.64 473.12 535.82 479.75 527.88 490.72 520.68 505.4 514.07 522.55 507.89 540.56 501.94 557.65 496.05 572.16 490.05 582.78 476.77 588.24 461.85 582.52 453.19 576.47 443.75 571.41 433.5 569.11 422.47 570.95 410.35 565.44 397.57 564.68 384.23 567.74 370.45 573.15 356.34 579.09 342.03 583.69 327.65 585.31 313.33 582.8 299.17 575.62 285.28 563.99 271.76 548.76 258.66 531.35 246.04 513.45 233.92 496.83 222.31 483.02 211.19 473.1 211.13 460.87 212.74 448.64 215.82 436.41 219.96 424.18 224.63 411.94 229.21 399.71 233.11 387.48 235.82 375.25 236.99 363.02 236.47 350.79 234.32 338.56 230.82 326.33 226.44 314.1 221.73 301.87 220.14 281.84 232.43 273.31 242.29 274.32 252.6 275.92 263.43 276.89 274.82 276.13 286.8 272.85 299.36 266.64 312.49 257.55 326.13 246.07 340.23 233.02 354.69 219.47 369.41 206.5 384.26 195.11 406.46 182.8 413.81 179.58" stroke-dasharray="9 9" transform="rotate(42.800000000000004, 400, 400)" opacity="0.43"></path><path d="M406.61 191.81Q413.26 199.7 419.63 209.78 425.85 221.55 432.03 234.24 438.3 246.96 444.8 258.79 451.64 268.91 458.97 276.71 466.88 281.89 475.47 284.5 484.84 284.92 495.02 283.86 506.07 282.25 518 281.1 530.77 281.39 544.35 283.92 553.42 295.39 563.81 306.87 574.34 318.34 583.8 329.82 591.1 341.29 595.41 352.77 596.23 364.24 593.47 375.71 587.45 387.19 578.85 398.66 568.67 410.14 558.06 421.61 548.25 433.09 540.36 444.56 535.29 456.04 533.63 467.51 524.38 477.61 515.98 490.96 508.33 506.62 501.33 523.3 494.85 539.58 488.77 554.05 477.21 571.17 465.56 576.62 452.49 568.11 437.94 558.54 429.63 556.81 420.66 558.72 408.08 553.41 395.06 552.24 381.73 554.51 368.17 559.09 354.51 564.53 340.85 569.31 327.3 572 313.95 571.47 300.89 567.06 288.19 558.61 275.89 546.51 264.05 531.65 252.68 515.24 241.78 498.71 231.35 483.46 221.36 470.73 222.08 459.2 224.28 447.68 227.71 436.15 231.97 424.63 236.58 413.1 241.01 401.58 244.74 390.05 247.36 378.53 248.56 367 248.2 355.48 246.33 343.95 243.15 332.43 239.04 320.9 234.47 309.38 241.82 290.07 260.62 289.67 270.15 289.66 280.14 287.56 290.66 282.91 301.71 275.59 313.3 265.84 325.44 254.23 338.08 241.55 351.18 228.71 364.67 216.65 378.47 206.15 399.55 194.79 406.61 191.81" stroke-dasharray="7 7" transform="rotate(47.08, 400, 400)" opacity="0.47"></path><path d="M398.54 204.04Q404.52 211.38 410.47 220.71 416.49 231.61 422.67 243.49 429.13 255.61 435.97 267.21 443.26 277.55 451.09 286.03 459.54 292.28 468.66 296.17 478.49 297.83 489.04 297.7 500.32 296.4 512.32 294.73 524.98 293.54 538.26 293.63 547.3 304.41 557.02 315.18 566.43 325.96 574.6 336.74 580.71 347.52 584.14 358.3 584.57 369.08 581.93 379.86 576.51 390.63 568.83 401.41 559.67 412.19 549.94 422.97 540.61 433.75 532.63 444.53 526.78 455.31 523.65 466.09 514.11 478.52 505.33 492.94 497.27 508.32 489.86 523.52 483.02 537.4 476.65 548.95 456.67 559.87 442.56 554.13 429.98 546.92 416.15 546.5 403.54 541.4 390.72 539.88 377.8 541.43 364.87 545.18 352.01 550.02 339.31 554.71 326.85 558.08 314.69 559.09 302.88 557.02 291.47 551.51 280.48 542.59 269.94 530.7 259.83 516.63 250.15 501.4 240.87 486.14 231.96 472 233.41 461.13 236.11 450.26 239.8 439.4 244.11 428.53 248.61 417.67 252.84 406.8 256.39 395.94 258.9 385.07 260.11 374.2 259.92 363.34 258.33 352.47 255.5 341.61 251.73 330.74 247.38 319.88 253 303.29 269.47 302.83 277.78 301.48 286.47 297.93 295.57 292 305.14 283.78 315.19 273.62 325.74 262.1 336.79 249.94 348.33 237.93 360.33 226.8 372.74 217.19 392.02 206.79 398.54 204.04" stroke-dasharray="10 1" transform="rotate(51.36, 400, 400)" opacity="0.51"></path><path d="M390.67 216.26Q396.44 223.06 402.36 231.63 408.51 241.66 414.97 252.67 421.81 264.08 429.08 275.27 436.86 285.62 445.17 294.57 454.06 301.71 463.55 306.8 473.64 309.81 484.34 310.93 495.61 310.53 507.43 309.15 519.74 307.44 532.49 306.1 541.17 316.22 550.01 326.34 558.24 336.46 565.15 346.58 570.15 356.7 572.81 366.82 572.89 376.94 570.4 387.06 565.54 397.18 558.73 407.3 550.56 417.43 541.74 427.55 533.03 437.67 525.18 447.79 518.87 457.91 514.64 468.03 504.96 481.43 495.94 495.58 487.56 509.58 479.79 522.52 472.58 533.6 465.88 542.2 445.6 546.91 432.06 540.07 421.12 534.1 409.54 534.27 397.37 529.41 385.2 527.61 373.1 528.51 361.14 531.45 349.39 535.6 337.9 540.01 326.72 543.7 315.89 545.8 305.44 545.6 295.39 542.63 285.73 536.71 276.48 527.95 267.61 516.75 259.11 503.75 250.94 489.77 243.07 475.7 245.14 465.47 248.24 455.24 252.1 445.02 256.37 434.79 260.7 424.56 264.71 414.34 268.05 404.11 270.43 393.89 271.66 383.66 271.62 373.43 270.31 363.21 267.86 352.98 264.46 342.76 260.43 332.53 264.74 316.97 279.17 314.9 286.39 312.05 293.88 307.11 301.68 300.09 309.84 291.23 318.41 280.92 327.4 269.71 336.84 258.24 346.74 247.12 357.09 236.97 367.88 228.25 384.88 218.78 390.67 216.26" stroke-dasharray="3 7" transform="rotate(55.64, 400, 400)" opacity="0.54"></path><path d="M384.01 228.49Q389.9 234.75 396.07 242.56 402.55 251.69 409.39 261.79 416.65 272.41 424.35 283.04 432.52 293.18 441.18 302.34 450.33 310.12 459.97 316.25 470.1 320.56 480.69 323.07 491.7 323.95 503.11 323.51 514.85 322.17 526.87 320.46 534.9 329.93 542.71 339.4 549.73 348.88 555.45 358.35 559.44 367.83 561.41 377.3 561.21 386.77 558.86 396.25 554.53 405.72 548.55 415.19 541.34 424.67 533.45 434.14 525.45 443.61 517.93 453.08 511.45 462.56 506.48 472.03 496.84 485 487.74 497.72 479.19 509.5 471.18 519.72 456.87 532.43 443.89 537.87 432.62 533.39 422.02 526.12 411.91 521.36 401.69 522.04 390.41 517.44 379.27 515.43 368.32 515.75 357.62 517.92 347.2 521.34 337.1 525.28 327.32 528.99 317.9 531.75 308.85 532.93 300.15 532.02 291.81 528.74 283.81 522.97 276.13 514.84 268.74 504.66 261.61 492.93 254.7 480.27 257.29 470.69 260.66 461.11 264.58 451.53 268.74 441.95 272.85 432.37 276.6 422.79 279.72 413.22 281.97 403.64 283.19 394.06 283.29 384.48 282.27 374.9 280.19 365.32 277.22 355.74 273.56 346.16 276.99 330.25 289.68 325.51 295.95 321.19 302.38 315.04 309.03 307.22 315.93 298.01 323.13 287.82 330.66 277.14 338.56 266.47 346.84 256.33 355.52 247.16 364.61 239.33 379.06 230.78 384.01 228.49" stroke-dasharray="11 3" transform="rotate(59.92000000000001, 400, 400)" opacity="0.58"></path><path d="M379.43 240.73Q392.13 253.5 406.2 270.9 421.79 290.56 438.96 309.39 457.69 324.43 477.83 333.73 499.12 336.95 521.22 335.51 535.07 353.13 545.49 370.75 549.94 388.37 547.32 405.99 538.29 423.61 525.04 441.23 510.81 458.86 499.05 476.47 480.65 498.28 463.99 514.72 449.07 523.43 435.78 524.25 423.91 519.27 413.16 512.32 403.19 507.88 393.61 509.8 373.77 503.33 354.96 504.6 337.35 510.63 321.02 517.14 305.94 519.83 292.02 515.55 279.07 503.22 266.88 484.02 273.37 466.23 281.22 448.43 288.52 430.63 293.5 412.83 294.95 395.03 292.49 377.23 286.75 359.43 279.11 341.63 290.09 340.85 300.92 334.37 311.92 321.73 323.39 304.21 335.64 284.43 348.94 265.57 363.49 250.44 379.43 240.73 379.43 240.73 379.43 240.73" stroke-dasharray="4 2" transform="rotate(64.2, 400, 400)" opacity="0.62"></path><path d="M377.53 252.96Q390.85 264.44 405.4 279.98 421.21 297.87 438.25 315.78 456.39 331.33 475.45 342.6 495.2 348.7 515.34 349.91 527.03 366.14 535.27 382.37 538.4 398.6 535.79 414.83 527.95 431.06 516.49 447.29 503.71 463.51 492.21 479.74 474.51 496.42 458.13 507.32 443.15 511.6 429.54 509.99 417.24 504.66 406.08 498.7 395.87 495.43 386.37 497.57 369.51 491.31 353.72 491.53 339.04 496.16 325.45 502.19 312.86 506.3 301.15 505.72 290.13 498.81 279.6 485.48 286.32 469.12 293.78 452.77 300.47 436.42 305.04 420.06 306.57 403.71 304.74 387.35 299.93 371 293.1 354.64 303.08 350.62 312.76 341.34 322.36 327.26 332.13 309.93 342.3 291.65 353.12 274.85 371.17 257.27 377.53 252.96" stroke-dasharray="9 10" transform="rotate(68.48, 400, 400)" opacity="0.66"></path><path d="M378.56 265.19Q392.18 275.39 406.78 289.07 422.29 305.04 438.64 321.63 455.69 337.03 473.25 349.58 491.12 358.16 509.07 362.41 518.54 377.15 524.79 391.9 526.81 406.65 524.25 421.4 517.54 436.14 507.79 450.89 496.58 465.64 485.78 480.39 469.14 491.56 453.44 497.52 438.77 498.38 425.17 495.28 412.66 490.13 401.18 485.27 390.64 483.06 380.9 485.34 367.13 479.38 354.31 478.7 342.39 481.96 331.31 487.1 320.96 491.75 311.2 493.67 301.88 491.18 292.82 483.47 299.5 468.66 306.41 453.85 312.44 439.04 316.58 424.24 318.16 409.43 316.91 394.62 313.05 379.81 307.21 365 316.32 357.85 325.04 346.47 333.52 331.79 341.93 315.32 350.45 298.87 359.28 284.21 373.57 268.96 378.56 265.19" stroke-dasharray="9 9" transform="rotate(72.76, 400, 400)" opacity="0.70"></path><path d="M382.38 277.42Q395.8 286.36 409.88 298.2 424.55 312.14 439.69 327.07 455.19 341.67 470.89 354.68 486.64 365.02 502.28 372.02 509.58 385.19 514.06 398.36 515.16 411.53 512.71 424.71 507.05 437.88 498.9 451.05 489.34 464.23 479.59 477.4 464.34 483.49 449.69 485.53 435.73 484.1 422.56 480.34 410.19 475.77 398.65 472.06 387.91 470.77 377.92 473.11 367.09 467.53 356.97 466.13 347.52 468.1 338.63 472.1 317.55 471.37 319.1 451.06 324.42 437.89 328.12 424.72 329.71 411.55 329 398.37 326.07 385.2 321.3 372.03 329.63 362.44 337.55 349.95 345.14 335.56 352.5 320.52 359.78 306.15 367.09 293.66 378.48 280.68 382.38 277.42" stroke-dasharray="4 8" transform="rotate(77.03999999999999, 400, 400)" opacity="0.73"></path><path d="M388.49 289.65Q401.13 297.36 414.13 307.39 427.42 319.25 440.91 332.24 454.5 345.5 468.09 358.11 481.57 369.23 494.83 378.18 500.12 389.7 503.09 401.22 503.46 412.73 501.18 424.25 496.48 435.77 489.83 447.29 481.9 458.81 473.48 470.33 459.88 472.38 446.61 471.74 433.78 469.09 421.44 465.38 409.65 461.67 398.43 459.07 387.82 458.56 377.81 460.88 361.96 455.2 347.3 457.4 330.1 459.96 331.83 444.38 336.42 432.9 339.65 421.43 341.22 409.96 340.97 398.49 338.92 387.02 335.28 375.55 342.87 364.65 350.07 352.14 356.93 338.86 363.49 325.72 369.85 313.6 376.07 303.24 385.37 292.41 388.49 289.65" stroke-dasharray="8 1" transform="rotate(81.32000000000001, 400, 400)" opacity="0.77"></path><path d="M396.1 301.88Q407.38 308.38 418.79 316.66 430.28 326.44 441.79 337.32 453.24 348.77 464.58 360.22 475.73 371.1 486.64 380.85 490.15 390.66 491.88 400.48 491.71 410.29 489.64 420.11 485.83 429.92 480.56 439.73 474.22 449.55 467.28 459.36 455.52 458.75 443.93 456.69 432.56 453.76 421.46 450.6 410.68 447.9 400.26 446.33 382.32 445.25 368.49 441.8 357.18 443.74 346.1 448.93 344.34 436.29 351.19 414.89 352.69 405.15 352.82 395.41 351.56 385.67 349 375.93 355.86 365 362.38 353.49 368.58 341.99 374.49 331.07 380.16 321.25 385.61 312.96 393.51 304.17 396.1 301.88" stroke-dasharray="8 9" transform="rotate(85.60000000000001, 400, 400)" opacity="0.81"></path><path d="M404.23 314.12Q423.13 326.03 441.87 342.47 460.13 361.49 477.64 380.52 480.45 396.7 478.1 412.89 471.09 429.07 460.81 445.26 441.34 441.03 422.19 436.21 403.64 433.83 385.91 436.42 376.78 430.05 367.84 429.62 358.07 427.66 362.73 406.06 364.52 390.04 362.37 374.02 374.23 354.57 385.09 336.76 399.63 318.48 404.23 314.12" stroke-dasharray="10 9" transform="rotate(89.88, 400, 400)" opacity="0.85"></path><path d="M411.8 326.34Q426.45 335.54 440.76 347.87 454.59 362.49 467.8 378.16 468.8 390.93 466.57 403.71 461.39 416.48 453.95 429.25 438.54 425.43 423.16 422.39 407.95 421.59 393.05 424.19 374.49 413.69 374.26 396.32 376.07 383.68 375.26 371.05 385.42 355.99 394.88 342.94 407.73 329.62 411.8 326.34" stroke-dasharray="13 3" transform="rotate(94.16, 400, 400)" opacity="0.89"></path><path d="M417.83 338.57Q428.16 345.19 438.18 353.71 447.85 363.82 457.12 375.08 456.96 384.51 455.03 393.96 443.38 406.96 423.88 409.28 404.14 408.49 390.32 404.99 383.68 400.54 385.8 387.13 387.44 377.78 387.58 368.44 395.76 358.3 403.53 349.77 414.36 340.86 417.83 338.57" stroke-dasharray="1 4" transform="rotate(98.44, 400, 400)" opacity="0.92"></path><path d="M421.54 350.8Q433.94 360.12 445.62 372.71 443.49 385.12 438.57 397.55 423.91 397.01 409.01 399.73 399.29 387 399.25 367.58 416.15 354.09 421.54 350.8" stroke-dasharray="12 5" transform="rotate(102.72, 400, 400)" opacity="0.96"></path></g></svg>