<svg xmlns="http://www.w3.org/2000/svg" version="1.1" xmlns:xlink="http://www.w3.org/1999/xlink" xmlns:svgjs="http://svgjs.dev/svgjs" viewBox="0 0 800 800"><defs><linearGradient x1="50%" y1="0%" x2="50%" y2="100%" id="wwwhirl-grad"><stop stop-color="hsl(185, 53%, 55%)" stop-opacity="1" offset="45%"></stop><stop stop-color="hsl(0, 73%, 55%)" stop-opacity="1" offset="100%"></stop></linearGradient></defs><g stroke-width="2" stroke="url(#wwwhirl-grad)" fill="none" stroke-linecap="round"><path d="M-1456.2499993890524 599.6877339654934C-1427.2460925858468 498.60911875632166 -1282.2265585698185 -218.18618300140128 -1224.2187449634073 -208.9411877078795C-1166.210931356996 -199.6961924143577 -1050.1953041441734 662.5537019614416 -992.1874905377624 673.6476963136676C-934.1796769313512 684.7416906658938 -818.1640497185285 -124.50356402704712 -760.1562361121173 -120.18923289007027C-702.1484225057062 -115.87490175309345 -586.1327952928835 691.5213538811431 -528.1249816864724 708.1623454094823C-470.1171680800612 724.8033369378215 -354.10154086723855 27.114358786710284 -296.09372726082734 12.938699336643538C-238.08591365441612 -1.2369601134232084 -122.07028644159345 606.4673971807425 -64.06247283518246 594.7570698089484C-6.054659228771243 583.0467424371541 109.9609679840512 -110.32790457698037 167.9687815904624 -80.74391963771063C225.97659519687386 -51.15993469844088 341.9922224096963 843.1392766949004 400.0000360161073 831.4289493231063C458.00784962251873 819.7186219513119 574.0234768353412 -178.1245367294735 632.0312904417524 -174.4265386120648C690.0391040481636 -170.72854049465607 806.0547312609865 816.0206238339033 864.0625448673977 861.0129342623759C922.0703584738089 906.0052446908487 1038.0859856866314 194.75694010923877 1096.0937992930426 185.51194481571702C1154.1016128994534 176.2669495221952 1270.1172401122758 801.2286313642684 1328.125053718687 787.0529719142016C1386.1328673250982 772.8773124641349 1502.1484945379211 44.371683334617614 1560.1563081443328 72.10666921518299C1618.1641217507436 99.84165509574837 1734.1797489635665 998.4551976260666 1792.1875625699777 1008.9328589587246C1850.195376176389 1019.4105202913829 1966.2110033892109 176.88328254176332 2024.218816995622 155.92795987644723C2082.2266306020338 134.9726372111312 2227.2461646180614 755.6199879162275 2256.250071421267 841.2902776361962 " transform="rotate(99, 400, 400)"></path><path d="M-1399.9999995231628 593.636585888118C-1371.874998986721 495.62095901861824 -1231.2499963045118 -199.45327298887065 -1174.9999952316282 -190.48842906787982C-1118.7499941587446 -181.523585146889 -1006.2499920129773 654.5975245508556 -949.9999909400938 665.3553372560447C-893.7499898672102 676.1131499612335 -781.2499877214427 -108.60952125616359 -724.9999866485592 -104.42592742636788C-668.7499855756756 -100.24233359657215 -556.2499834299082 682.6873688366269 -499.9999823570247 698.8240878944104C-443.7499812841411 714.9608069521938 -331.24997913837365 38.41391904808597 -274.99997806549004 24.66782503590005C-218.74997699260666 10.92173102371413 -106.24997484683922 600.2108047635112 -49.99997377395562 588.8553357969229C6.250027298927762 577.4998668303346 118.75002944469543 -94.86342724397765 175.00003051757903 -66.175926696807C231.2500315904624 -37.488426149636354 343.7500337362301 829.7108091408764 400.00003480911323 818.355340174288C456.25003588199706 806.9998712076997 568.7500380277643 -160.6056159979104 625.0000391006479 -157.01967842951407C681.2500401735315 -153.43374086111774 793.7500423192992 803.4139336393033 850.0000433921828 847.0428407214586C906.2500444650664 890.6717478036139 1018.7500466108336 200.97642214871968 1075.0000476837172 192.01157822772882C1131.2500487566008 183.04673430673802 1243.7500509023675 789.0701833657181 1300.0000519752512 775.324089353532C1356.2500530481348 761.5779953413461 1468.7500551939024 55.148294367268875 1525.000056266786 82.04282613024134C1581.2500573396696 108.9373578932138 1693.7500594854373 980.3201870135224 1750.000060558321 990.4803434573118C1806.250061631204 1000.6404999011015 1918.7500637769713 183.64439056813745 1975.0000648498553 163.32407768055822C2031.2500659227385 143.00376479297898 2171.8750686049475 744.8436200221632 2200.0000691413893 827.9178403566782 " transform="rotate(96, 400, 400)"></path><path d="M-1343.7499996572733 587.5854378107427C-1316.5039053875953 492.6327992809149 -1180.273434039205 -180.72036297634003 -1125.781245499849 -172.03567042788018C-1071.289056960493 -163.3509778794203 -962.304679881781 646.6413471402699 -907.8124913424251 657.0629781984217C-853.3203028030691 667.4846092565734 -744.335925724357 -92.71547848528006 -689.843737185001 -88.66262196266544C-635.351548645645 -84.60976544005085 -526.3671715669328 673.8533837921108 -471.87498302757695 689.4858303793385C-417.38279448822107 705.1182769665663 -308.39841740950874 49.713479309461746 -253.90622887015297 36.396950735156594C-199.41404033079698 23.080422160851498 -90.42966325208477 593.95421234628 -35.93747471272877 582.9536017848975C18.55471382662722 571.952991223515 127.53909090533921 -79.39894991097493 182.03127944469543 -51.60793375590336C236.5234679840512 -23.816917600831772 345.5078450627634 816.2823415868526 400.0000336021192 805.2817310254701C454.49222214147517 794.2811204640876 563.4765992201876 -143.08669526634728 617.9687877595434 -139.61281824696334C672.4609762988994 -136.13894122757938 781.4453533776118 790.8072434447037 835.9375419169678 833.0727471805416C890.4297304563238 875.3382509163796 999.4141075350353 207.1959041882006 1053.9062960743913 198.5112116397408C1108.3984846137478 189.8265190912809 1217.3828616924593 776.9117353671678 1271.8750502318153 763.5952067928628C1326.3672387711713 750.2786782185576 1435.3516158498837 65.92490539992016 1489.8438043892397 91.97898304529974C1544.3359929285953 118.03306069067935 1653.3203700073082 962.1851764009784 1707.8125585466637 972.0278279558995C1762.3047470860201 981.8704795108206 1871.2891241647317 190.40549859451158 1925.7813127040881 170.7201954846692C1980.2735012434437 151.03489237482682 2116.5039725918336 734.0672521280992 2143.7500668615116 814.5454030771606 " transform="rotate(93, 400, 400)"></path><path d="M-1287.4999997913837 581.5342897333674C-1261.1328117884696 489.6446395432114 -1129.2968717738984 -161.9874529638094 -1076.56249576807 -153.5829117878805C-1023.8281197622416 -145.1783706119516 -918.3593677505849 638.6851697296838 -865.6249917447565 648.7706191407985C-812.8906157389281 658.8560685519133 -707.4218637272712 -76.82143571439653 -654.6874877214428 -72.89931649896305C-601.9531117156145 -68.97719728352956 -496.4843597039576 665.0193987475946 -443.7499836981292 680.1475728642664C-391.01560769230093 695.2757469809385 -285.54685568064383 61.013039570837435 -232.81247967481568 48.126076434413136C-180.0781036689873 35.23911329798881 -74.60935165733031 587.6976199290485 -21.874975651501927 577.0518677728719C30.859400354326226 566.4061156166954 136.32815236598321 -63.934472577972215 189.06252837181182 -37.03994081499974C241.79690437763998 -10.145409052027247 347.26565638929696 802.8538740328285 400.0000323951251 792.2081218766518C452.7344084009537 781.5623697204752 558.2031604126105 -125.56777453478416 610.9375364184389 -122.2059580644126C663.671912424267 -118.84414159404105 769.1406644359245 778.2005532501037 821.8750404417528 819.1026536396244C874.6094164475812 860.004754029145 980.0781684592375 213.41538622768155 1032.812544465066 205.0108450517526C1085.5469204708947 196.6063038758237 1191.015672482551 764.7532873686175 1243.7500484883794 751.866324232193C1296.4844244942078 738.9793610957687 1401.953176505865 76.7015164325714 1454.6875525116934 101.91513996035809C1507.4219285175218 127.12876348814478 1612.8906805291786 944.050165788434 1665.625056535007 953.5753124544867C1718.3594325408353 963.1004591205394 1823.8281845524925 197.16660662088566 1876.562560558321 178.11631328878013C1929.2969365641488 159.0660199566746 2061.13287657872 723.2908842340348 2087.500064581634 801.1729657976427 " transform="rotate(90, 400, 400)"></path><path d="M-1231.2499999254942 575.4831416559921C-1205.7617181893438 486.65647980550807 -1078.3203095085917 -143.25454295127878 -1027.343746036291 -135.13015314788083C-976.3671825639901 -127.0057633444829 -874.4140556193885 630.7289923190981 -823.4374921470878 640.4782600831758C-772.460928674787 650.2275278472532 -670.5078017301853 -60.927392943513 -619.5312382578846 -57.13601103526062C-568.5546747855839 -53.34462912700826 -466.6015478409822 656.1854137030784 -415.62498436868145 670.8093153491947C-364.6484208963807 685.4332169953109 -262.69529395177904 72.31259983221318 -211.71873047947838 59.85520213366968C-160.7421670071776 47.397804435126176 -58.78904006257585 581.4410275118174 -7.81247659027531 571.1501337608466C43.164086882025686 560.8592400098759 145.11721382662722 -48.469995244969496 196.09377729892822 -22.471947874096088C247.07034077122876 3.526099496777306 349.0234677158305 789.4254064788045 400.00003118813106 779.1345127278338C450.97659466043183 768.8436189768631 552.9297216050336 -108.04885380322104 603.9062850773344 -104.79909788186187C654.8828485496351 -101.54934196050269 756.8359754942371 765.5938630555039 807.8125389665379 805.1325600987072C858.7891024388387 844.6712571419105 960.7422293834397 219.63486826716246 1011.718792855741 211.51047846376457C1062.6953563280413 203.38608866036657 1164.6484832726428 752.5948393700672 1215.6250467449436 740.1374416715238C1266.6016102172443 727.6800439729802 1368.5547371618463 87.47812746522268 1419.5313006341466 111.8512968754165C1470.5078641064479 136.22446628561033 1572.4609910510494 925.9151551758898 1623.4375545233502 935.1227969530742C1674.414117995651 944.3304387302585 1776.367244940253 203.9277146472598 1827.3438084125537 185.51243109289118C1878.320371884854 167.09714753852245 2005.7617805656055 712.5145163399707 2031.2500623017563 787.800528518125 " transform="rotate(87, 400, 400)"></path><path d="M-1175.0000000596046 569.4319325434608C-1150.390624590218 483.6682590326485 -1027.343747243285 -124.5216939739044 -978.1249963045119 -116.67745554303742C-928.9062453657386 -108.83321711217044 -830.4687434881923 622.7727538733561 -781.2499925494192 632.1858399903965C-732.031241610646 641.5989261074369 -633.5937397330996 -45.033411207785704 -584.3749887943264 -41.372766606714464C-535.1562378555533 -37.71212200564321 -436.71873597800686 647.3513676234061 -387.4999850392338 661.4709967989667C-338.28123410046055 675.5906259745271 -239.84373222291413 83.61209905843268 -190.62498128414109 71.58426679776997C-141.40623034536793 59.55643453710729 -42.96872846782162 575.1843740594298 6.250022470951762 565.248338713665C55.46877340972469 555.3123033679002 153.90627528727123 -33.00557894712301 203.12502622604438 -7.904015968348688C252.3437771648173 17.19754701042561 350.78127904236385 775.9968778896243 400.000029981137 766.0608425438595C449.2187809199104 756.1248071980947 547.6562827974567 -90.52999410681417 596.8750337362296 -87.39229873446737C646.093784675003 -84.25460336212059 744.5312865525498 752.987111825748 793.7500374913229 791.1624055226339C842.9687884300956 829.3376992195199 941.4062903076419 225.85428927148718 990.6250412464151 218.01005084062018C1039.8437921851882 210.16581240975324 1138.2812940627346 740.4363303363608 1187.5000450015077 728.408498075698C1236.7187959402809 716.3806658150354 1335.1562978178276 98.25467746271772 1384.3750487566008 121.78739275531865C1433.5937996953735 145.32010804791958 1532.0313015729203 907.7800835281896 1581.2500525116934 916.6702204165056C1630.468803450467 925.5603573048213 1728.9063053280129 210.68876163847767 1778.125056266786 192.90848786184586C1827.3438072055592 175.1282140852141 1950.3906845524916 701.7380874107504 1975.0000600218787 774.428030203451 " transform="rotate(84, 400, 400)"></path><path d="M-1118.750000193715 563.380937053976C-1095.0195309910923 480.6802518828356 -976.3671849779784 -105.78863137348314 -928.9062465727327 -98.22454431514714C-881.4453081674872 -90.66045725681113 -786.5234313569961 614.8167290506608 -739.0624929517505 623.893633520664C-691.601554546505 632.9705379906673 -596.6796777360138 -29.139215849011563 -549.2187393307682 -25.60930855512143C-501.7578009255227 -22.079401261231297 -406.8359241150315 638.5175351667804 -359.3749857097861 652.1328918717852C-311.91404730454053 665.74824857679 -216.99217049404933 94.91181190769902 -169.53123208880368 83.31354508491714C-122.07029368355825 71.71527826213523 -27.148416873066935 568.9279342300891 20.31252153217838 559.3467572895302C67.77345993742392 549.7655803489712 162.69533674791523 -17.540949026229683 210.15627515316078 6.664129560445559C257.6172135584063 30.869208147120787 352.53909036889763 762.568562923491 400.00002877414295 752.9873859829321C447.4609671793885 743.4062090423731 542.3828439898798 -73.01092078736043 589.8437823951251 -69.98528596402602C637.3047208003707 -66.95965114069162 732.2265976108622 740.3805742190386 779.6875360161077 777.1924645696073C827.1484744213531 814.0043549201758 922.0703512318441 232.07392389885865 969.5312896370897 224.50983684052267C1016.9922280423352 216.94574978218668 1111.9141048528263 728.278034925701 1159.3750432580719 716.6797681029192C1206.8359816633174 705.0815012801373 1301.757858473809 109.03144108325958 1349.218796879054 131.7237022582676C1396.6797352842996 154.41596343327566 1491.601612094791 889.6452255035359 1539.0625505000367 898.2178575029834C1586.5234889052822 906.7904895024309 1681.4453657157733 217.45002225274243 1728.9063041210188 200.30475825384747C1776.367242526264 183.1594942549525 1895.0195885393778 690.9618721045767 1918.750057742001 761.0557455118238 " transform="rotate(81, 400, 400)"></path><path d="M-1062.5000003278255 557.3297889766006C-1039.6484373919666 477.69209214513216 -925.3906227126716 -87.05572136095252 -879.6874968409536 -79.77178567514747C-833.9843709692357 -72.48784998934242 -742.5781192257998 606.8605516400751 -696.8749933540819 615.601274463041C-651.171867482364 624.3419972860072 -559.765615738928 -13.245173078128033 -514.06248986721 -9.846003091419021C-468.35936399549223 -6.446833104709995 -376.95311225205614 629.6835501222643 -331.2499863803383 642.7946343567133C-285.5468605086204 655.9057185911623 -194.14060876518442 106.21137216907474 -148.4374828934665 95.04267078417368C-102.73435702174868 83.8739693992726 -11.328105278312705 562.6713418128577 34.375020593405225 553.4450232775047C80.07814646512338 544.2187047421517 171.48439820855924 -2.0764716932269636 217.18752408027717 21.232122501349195C262.8906499519951 44.54071669592534 354.29690169543096 749.140095369467 400.0000275671489 739.913776834114C445.70315343886705 730.6874582987608 537.1094051823027 -55.49200005579732 582.8125310540206 -52.57842578147529C628.5156569257388 -49.66485150715327 719.9219086691749 727.7738840244388 765.6250345408928 763.2223710286901C811.3281604126105 798.6708580329413 902.7344121560466 238.29340593833962 948.4375380277643 231.00947025253453C994.1406638994822 223.72553456672955 1085.546915642918 716.1195869271507 1131.250041514636 704.9508855422496C1176.953167386354 693.7821841573485 1268.3594191297902 119.80805211591084 1314.0625450015077 141.65985917332597C1359.7656708732256 163.51166623074113 1451.171922616662 871.5102148909917 1496.87504848838 879.7653420015708C1542.5781743600978 888.0204691121498 1633.9844261035337 224.2111302791165 1679.6875519752516 207.70087605795845C1725.3906778469695 191.1906218368003 1839.648492526264 680.1855042105125 1862.5000554621229 747.683308232306 " transform="rotate(78, 400, 400)"></path><path d="M-1006.2500004619359 551.2786408992255C-984.2773437928407 474.70393240742885 -874.4140604473649 -68.3228113484219 -830.4687471091745 -61.31902703514781C-786.5234337709842 -54.31524272187373 -698.6328070946035 598.9043742294892 -654.6874937564132 607.3089154054182C-610.7421804182229 615.713456581347 -522.8515537418423 2.648869692755497 -478.90624040365185 5.917302372283402C-434.96092706546165 9.18573505181132 -347.0703003890809 620.8495650777481 -303.12498705089047 633.4563768416415C-259.17967371270026 646.0631886055348 -171.2890470363194 117.51093243045048 -127.3437336981292 106.77179648343022C-83.39842035993888 96.03266053640996 4.49220631644198 556.4147493956265 48.4375196546323 547.5432892654794C92.38283299282239 538.6718291353321 180.27345966920325 13.38800563977577 224.21877300739357 35.80011544225283C268.1640863455839 58.21222524472991 356.05471302196474 735.7116278154431 400.00002636015483 726.8401676852959C443.94533969834515 717.9687075551487 531.835966374726 -37.97307932423419 575.7812797129163 -35.17156559892456C619.7265930511064 -32.370051873614926 707.6172197274873 715.1671938298391 751.5625330656776 749.252277487773C795.5078464038681 783.3373611457068 883.3984730802488 244.51288797782053 927.3437864184389 237.5091036645465C971.2890997566292 230.50531935127236 1059.1797264330098 703.9611389286006 1103.1250397712001 693.2220029815803C1147.0703531093905 682.4828670345601 1234.9609797857715 130.58466314856213 1278.9062931239619 151.59601608838437C1322.8516064621517 172.60736902820662 1410.7422331385328 853.3752042784478 1454.6875464767231 861.3128265001584C1498.6328598149134 869.2504487218689 1586.523486491294 230.9722383054907 1630.4687998294844 215.09699386206938C1674.4141131676747 199.2217494186482 1784.27739651315 669.4091363164483 1806.2500531822452 734.3108709527883 " transform="rotate(75, 400, 400)"></path><path d="M-950.0000005960463 545.2275233394284C-928.906250193715 471.71580318730355 -823.4374981820582 -49.589870818313145 -781.2499973773955 -42.86623787757003C-739.0624965727327 -36.1426049368269 -654.6874949634073 590.9482273364816 -612.4999941587446 599.0165868653734C-570.3124933540819 607.0849463942651 -485.93749174475636 18.542942981217152 -443.74999094009377 21.68063835356395C-401.56249013543106 24.818333725910733 -317.18748852610554 612.01561055081 -274.99998772144284 624.1181498441476C-232.81248691678013 636.2206891374852 -148.4374853074546 128.81052320940435 -106.24998450279202 118.50095270026489C-64.06248369812931 108.19138219112543 20.312517911196323 550.1581874959733 62.500018715858914 541.6415857710319C104.68751952052162 533.1249840460907 189.06252112984725 28.8525134903566 231.25002193450996 50.36813890073459C273.43752273917266 71.88376431111259 357.8125243484981 722.2831907789972 400.0000251531608 713.7665890540559C442.1875259578235 705.2499873291146 526.5625275671489 -20.454128075092953 568.7500283718118 -17.764674898795704C610.9375291764743 -15.075221722498455 695.3125307858002 702.5605341528175 737.5000315904626 735.2822144644339C779.6875323951256 768.0038947760504 864.0625340044508 250.73240053487962 906.2500348091132 244.0087675941365C948.4375356137762 237.2851346533934 1032.8125372231013 691.8027214476284 1075.0000380277643 681.493150938489C1117.187538832427 671.1835804293495 1201.5625404417528 141.3613046987915 1243.750041246415 161.53220352102088C1285.9375420510778 181.70310234325024 1370.3125436604037 835.2402241834816 1412.5000444650664 842.8603415163238C1454.687545269729 850.4804588491661 1539.062546879054 237.7333768494429 1581.2500476837172 222.4931421837585C1623.4375484883794 207.2529075180741 1728.9063005000367 658.6327989399624 1750.0000509023675 720.9384641908485 " transform="rotate(72, 400, 400)"></path><path d="M-893.7500007301568 539.176375262053C-873.5351565945892 468.7276434496001 -772.4609359167515 -30.85696080578252 -732.0312476456164 -24.413479237570357C-691.6015593744813 -17.969997669358207 -610.742182832211 582.9920499258958 -570.3124945610759 590.7242278077503C-529.8828062899408 598.4564056896049 -449.02342974767055 34.43698575210068 -408.59374147653557 37.44394381726636C-368.1640532054005 40.45090188243202 -287.30467666313007 603.1816255062938 -246.8749883919951 614.7798923290757C-206.44530012086 626.3781591518575 -125.5859235785897 140.11008347078007 -85.15623530745461 130.23007839952143C-44.72654703631963 120.3500733282628 36.13282950595067 543.901595078742 76.56251777708576 535.7398517590066C116.99220604822085 527.5781084392711 197.85158259049126 44.31699082335932 238.28127086162635 64.93613184163824C278.7109591327612 85.55527285991714 359.57033567503163 708.8547232249732 400.0000239461667 700.6929799052378C440.4297122173016 692.5312365855025 521.289088759572 -2.9352073435298394 561.7187770307071 -0.35781471624497385C602.148465301842 2.2195779110398917 683.0078418441128 689.9538439582175 723.4375301152479 721.3121209235168C763.8672183863828 752.6703978888158 844.726594928653 256.9518825743605 885.156283199788 250.5084010061484C925.5859714709231 244.06491943793623 1006.4453480131931 679.6442734490781 1046.8750362843282 669.7642683778195C1087.3047245554633 659.8842633065608 1168.1641010977337 152.13791573144277 1208.5937893688688 171.46836043607925C1249.0234776400039 190.7988051407157 1329.8828541822745 817.1052135709375 1370.3125424534096 824.4078260149113C1410.7422307245447 831.710438458885 1491.6016072668149 244.49448487581702 1532.03129553795 229.88925998786948C1572.4609838090846 215.2840350999219 1673.5352044869223 647.8564310458981 1693.7500486224899 707.5660269113308 " transform="rotate(69, 400, 400)"></path><path d="M-837.5000008642672 533.1252271846778C-818.1640629954635 465.7394837118967 -721.4843736514448 -12.124050793251897 -682.8124979138373 -5.960720597570699C-644.1406221762298 0.20260959811049872 -566.7968707010148 575.03587251531 -528.1249949634073 582.4318687501274C-489.45311922579987 589.8278649849448 -412.1093677505848 50.33102852298421 -373.4374920129773 53.20724928096877C-334.7656162753699 56.08347003895332 -257.4218648001548 594.3476404617777 -218.74998906254734 605.4416348140038C-180.07811332493998 616.53562916623 -102.7343618497249 151.40964373215579 -64.06248611211743 141.95920409877795C-25.390610374509947 132.50876446540013 51.95314110070524 537.6450026615106 90.62501683831272 529.8381177469812C129.29689257592008 522.0312328324517 206.64064405113527 59.78146815636204 245.31251978874252 79.50412478254187C283.98439552635 99.22678140872169 361.3281470015652 695.4262556709492 400.00002273917266 687.6193707564197C438.6718984767799 679.8124858418902 516.0156499519951 14.583713388033289 554.6875256896026 17.049045466305756C593.3594014272101 19.514377544578238 670.7031529024252 677.3471537636177 709.3750286400325 707.3420273825996C748.0469043776402 737.3369010015814 825.3906558528552 263.1713646138415 864.0625315904624 257.00803441816026C902.7344073280699 250.8447042224791 980.0781588032849 667.4858254505278 1018.7500345408926 658.03538581715C1057.4219102784998 648.5849461837722 1134.765661753715 162.91452676409403 1173.4375374913225 181.4045173511376C1212.10941322893 199.8945079381812 1289.453164704145 798.9702029583933 1328.1250404417528 805.9553105134986C1366.7969161793599 812.940418068604 1444.1406676545748 251.25559290219115 1482.8125433921823 237.28537779198044C1521.4844191297898 223.31516268176972 1618.1641084738085 637.0800631518339 1637.5000463426122 694.193589631813 " transform="rotate(66, 400, 400)"></path><path d="M-781.2500009983777 527.0741096248806C-762.7929693963378 462.75135449177145 -670.5078113861381 6.608889736856852 -633.5937481820582 12.492068560007084C-596.6796849779784 18.375247383157316 -522.8515585698185 567.0797256223021 -485.9374953657387 574.1395402100825C-449.02343216165883 581.1993547978627 -375.195305753499 66.22510181144585 -338.2812425494192 68.9705852622493C-301.3671793453393 71.71606871305275 -227.53905293717946 585.5136859348396 -190.6249897330996 596.10340781651C-153.71092652901973 606.6931296981804 -79.88280012085988 162.70923451110966 -42.96873691678013 153.68836031561264C-6.054673712700264 144.66748612011563 67.77345269545958 531.3884407618574 104.68751589953945 523.9364142525338C141.60157910361931 516.4843877432102 215.42970551177905 75.24597600694288 252.34376871585891 94.07214824102363C289.2578319199388 112.89832047510436 363.08595832809874 681.9978186345033 400.0000215321784 674.5457921251798C436.91408473625825 667.0937656158561 510.7422111444182 32.10266463717453 547.6562743484981 34.45593616643461C584.5703375525779 36.80920769569471 658.3984639607379 664.7404940865961 695.3125271648178 693.3719643592605C732.2265903688976 722.003434631925 806.0547167770571 269.3908771709005 842.968779981137 263.50769834775025C879.8828431852169 257.62451952460003 953.7109695933766 655.3274079695557 990.6250327974565 646.3065337740586C1027.5390960015363 637.2856595785616 1101.3672224096963 173.69116831432342 1138.2812856137762 191.3407047837741C1175.195348817856 208.9902412532248 1249.0234752260158 780.8352228634272 1285.9375384300956 787.5028255296642C1322.8516016341755 794.1704281959011 1396.6797280423352 258.01673144614335 1433.593791246415 244.68152611366952C1470.507854450495 231.3463207811957 1562.7930124606946 626.3037257753479 1581.2500440627346 680.8211828698733 " transform="rotate(63, 400, 400)"></path><path d="M-725.0000011324881 521.0229615475054C-707.421875797212 459.763194754068 -619.5312491208314 25.34179974938749 -584.3749984502791 30.944827200006756C-549.2187477797269 36.54785465062602 -478.90624643862225 559.1235482117163 -443.74999576807005 565.8471811524595C-408.5937450975178 572.5708140932026 -338.28124375641323 82.1191445823294 -303.124993085861 84.73389072595171C-267.9687424153087 87.34863686957404 -197.6562410742041 576.6797008903234 -162.49999040365185 586.765150301438C-127.3437397330996 596.8505997125527 -57.03123839199509 174.00879477248537 -21.87498772144272 165.41748601486916C13.281262949109532 156.82617725725294 83.59376429021393 525.1318483446262 118.75001496076618 518.0346802405084C153.90626563131843 510.9375121363907 224.21876697242305 90.7104533399456 259.3750176429753 108.64014118192726C294.53126831352756 126.56982902390892 364.8437696546323 668.5693510804794 400.0000203251843 661.4721829763616C435.1562709957366 654.3750148722438 505.4687723368413 49.62158536873764 540.6250230073936 51.86279634898534C575.7812736779458 54.104007329233056 646.0937750190506 652.1338038919963 681.2500256896028 679.4018708183434C716.4062763601548 706.6699377446904 786.7187777012593 275.61035921038143 821.8750283718118 270.0073317597621C857.0312790423638 264.4043043091429 927.3437803834684 643.1689599710054 962.5000310540204 634.5776512133891C997.6562817245729 625.986342455773 1067.9687830656776 184.46777934697468 1103.1250337362296 201.27686169883248C1138.281284406782 218.0859440506903 1208.5937857478868 762.700212250883 1243.7500364184389 769.0503100282516C1278.9062870889911 775.4004078056201 1349.2187884300956 264.7778394725175 1384.3750391006479 252.0776439177805C1419.5312897712001 239.3774483630435 1507.4219164475808 615.5273578812837 1525.000041782857 667.4487455903555 " transform="rotate(60, 400, 400)"></path><path d="M-668.7500012665987 514.9718134701301C-652.0507821980863 456.7750350163647 -568.5546868555247 44.074709761918115 -535.1562487185 49.397585840006414C-501.7578105814754 54.72046191809471 -434.960934307426 551.1673708011306 -401.5624961704014 557.5548220948366C-368.16405803337676 563.9422733885425 -301.36718175932737 98.01318735321293 -267.9687436223028 100.49719618965413C-234.57030548527814 102.98120502609535 -167.77342921122874 567.8457158458073 -134.37499107420422 577.4268927863662C-100.97655293717958 587.0080697269251 -34.17967666313007 185.30835503386112 -0.7812385261055397 177.14661171412573C32.6171996109191 168.98486839439033 99.4140758849685 518.8752559273948 132.81251402199314 512.132946228483C166.21095215901778 505.39063652957117 233.00782843306706 106.17493067294834 266.4062665700917 123.2081341228309C299.80470470711634 140.24133757271346 366.6015809811656 655.1408835264555 400.00001911819027 648.3985738275437C433.3984572552149 641.6562641286317 500.1953335292642 67.14050610030077 533.5937716662888 69.26965653153609C566.9922098033135 71.3988069627714 633.7890860773632 639.5271136973964 667.1875242143878 665.4317772774261C700.5859623514125 691.3364408574561 767.3828386254615 281.8298412498624 800.7812767624862 276.506965171774C834.1797148995108 271.18408909368577 900.9765911735601 631.0105119724551 934.3750293105848 622.8487686527199C967.7734674476094 614.6870253329844 1034.570343721659 195.24439037962597 1067.9687818586835 211.21301861389088C1101.3672199957082 227.1816468481558 1168.1640962697577 744.565201638339 1201.5625344067823 750.5977945268392C1234.9609725438067 756.6303874153392 1301.757848817856 271.5389474988916 1335.1562869548807 259.4737617218915C1368.5547250919053 247.40857594489137 1452.050820434467 604.7509899872196 1468.7500395029792 654.0763083108378 " transform="rotate(57, 400, 400)"></path><path d="M-612.5000014007092 508.92066539275487C-596.6796885989605 453.7868752786612 -517.578124590218 62.80761977444874 -485.9374989867209 67.85034448000607C-454.2968733832239 72.89306918556342 -391.0156221762298 543.2111933905447 -359.37499657273275 549.2624630372136C-327.7343709692357 555.3137326838823 -264.4531197622416 113.90723012409646 -232.81249415874464 116.26050165335656C-201.1718685552476 118.61377318261664 -137.8906173482535 559.0117308012912 -106.24999174475647 568.0886352712944C-74.60936614125944 577.1655397412975 -11.328114934265272 196.60791529523686 20.312510669231756 188.87573741338227C51.953136272728784 181.14355953152767 115.23438747972284 512.6186635101635 146.87501308321987 506.23121221645755C178.5156386867169 499.84376092275164 241.79688989371118 121.63940800595105 273.437515497208 137.77612706373452C305.078141100705 153.91284612151804 368.3593923076992 641.7124159724315 400.0000179111962 635.3249646787256C431.64064351469324 628.9375133850197 494.9218947216873 84.65942683186388 526.5625203251843 86.67651671408682C558.2031459286814 88.69360659630975 621.4843971356756 626.9204235027967 653.1250227391727 651.461683736509C684.7656483426697 676.0029439702214 748.0468995496637 288.0493232893433 779.6875251531608 283.00659858378594C811.3281507566578 277.9638738782286 874.6094019636519 618.8520639739049 906.2500275671487 611.1198860920503C937.8906531706459 603.3877082101958 1001.1719043776402 206.02100141227723 1032.812529981137 221.14917552894923C1064.453155584634 236.27734964562126 1127.7344067916283 726.4301910257949 1159.3750323951256 732.1452790254266C1191.0156579986224 737.8603670250582 1254.2969092056164 278.30005552526575 1285.9375348091132 266.8698795260025C1317.5781604126105 255.43970352673918 1396.679724421353 593.9746220931554 1412.5000372231016 640.70387103132 " transform="rotate(54, 400, 400)"></path><path d="M-556.2500015348196 502.86951731537954C-541.3085949998349 450.7987155409578 -466.60156232491124 81.54052978697936 -436.7187492549418 86.30310312000574C-406.8359361849724 91.06567645303211 -347.07031004503347 535.2550159799589 -317.1874969750641 540.9701039795906C-287.30468390509475 546.6851919792223 -227.5390577651558 129.80127289498 -197.65624469518644 132.02380711705896C-167.77343162521703 134.24634133913793 -108.00780548527808 550.1777457567749 -78.12499241530872 558.7503777562224C-48.24217934533931 567.3230097556699 11.523446794599636 207.90747555661258 41.40625986456905 200.60486311263878C71.28907293453835 193.302250668665 131.0546990744773 506.36207109293224 160.9375121444467 500.3294782044322C190.82032521441613 494.29688531593206 250.58595135435507 137.10388533895377 280.4687644243244 152.34412000463817C310.3515774942938 167.58435467032257 370.11720363423285 628.2839484184075 400.00001670420204 622.2513555299074C429.88282977417157 616.2187626414074 489.6484559141106 102.178347563427 519.53126898408 104.08337689663755C549.4140820540492 105.9884062298481 609.1797081939883 614.3137333081968 639.0625212639577 637.4915901955919C668.9453343339271 660.669447082987 728.710960473866 294.2688053288242 758.5937735438354 289.50623199579786C788.4765866138046 284.7436586627715 848.2422127537434 606.6936159753546 878.1250258237128 599.3910035313808C908.0078388936824 592.088391087407 967.7734650336213 216.7976124449285 997.6562781035907 231.0853324440076C1027.53909117356 245.37305244308675 1087.3047173134992 708.2951804132506 1117.1875303834686 713.6927635240138C1147.070343453438 719.0903466347771 1206.8359695933768 285.0611635516399 1236.718782663346 274.26599733011346C1266.6015957333154 263.47083110858694 1341.308628408239 583.1982541990911 1356.2500349432237 627.3314337518023 " transform="rotate(51, 400, 400)"></path><path d="M-500.00000166893 496.8183082028481C-485.9375014007091 447.8104947680982 -415.62500005960453 100.27337876435374 -387.4999995231627 104.75580072484915C-359.3749989867209 109.23822268534457 -303.12499791383726 527.2987775342169 -274.9999973773955 532.6776838868113C-246.8749968409537 538.0565902394058 -190.62499576807 145.69525463070727 -162.49999523162825 147.78705154560512C-134.37499469518644 149.87884846050298 -78.12499362230272 541.3436996771024 -49.99999308586098 549.4120592059942C-21.874992549419176 557.4804187348859 34.375008523464544 219.20697478283205 62.50000905990635 212.33392777673907C90.62500959634804 205.46088077064613 146.87501066923176 500.10541764054466 175.00001120567356 494.4276831572505C203.12501174211525 488.74994867395634 259.3750128149991 152.56830163680024 287.5000133514409 166.91205191038557C315.6250138878826 181.2558021839709 371.8750149607664 614.8554198292272 400.000015497208 609.177685345933C428.1250160336499 603.4999508626389 484.3750171065335 119.69720725983386 512.5000176429753 121.49017604403203C540.6250181794171 123.28314482823019 596.875019252301 601.7069820784407 625.0000197887427 623.5214356195183C653.1250203251846 645.335889160596 709.3750213980682 300.4882263331489 737.50002193451 296.0058043726535C765.6250224709518 291.52338241215807 821.8750235438351 594.5351069416481 850.000024080277 587.6620599355551C878.1250246167187 580.7890129294622 934.3750256896026 227.5741624424235 962.5000262260444 241.02142832390973C990.6250267624862 254.46869420539596 1046.87502783537 690.1601087655503 1075.0000283718118 695.240186987445C1103.1250289082534 700.3202652093398 1159.375029981137 291.82221054285776 1187.500030517579 281.6620540990682C1215.6250310540206 271.5018976552785 1285.9375323951251 572.4218252698706 1300.000032663346 613.9589354371282 " transform="rotate(48, 400, 400)"></path><path d="M-443.75000180304045 490.76716012547274C-430.56640780158335 444.82233503039475 -364.6484377942978 119.00628877688436 -338.28124979138363 123.20855936484881C-311.91406178846944 127.41082995281326 -259.17968578264106 519.342600123631 -232.81249777972687 524.3853248291883C-206.44530977681268 529.4280495347457 -153.71093377098424 161.58929740159078 -127.34374576807005 163.55035700930753C-100.97655776515586 165.51141661702428 -48.24218175932742 532.5097146325863 -21.874993756413232 540.0738016909222C4.492194246500901 547.6378887492583 57.22657025232945 230.5065350442078 83.59375825524353 224.06305347599562C109.96094625815772 217.61957190778347 162.6953222639862 493.8488252233133 189.0625102669004 488.525949145225C215.42969826981448 483.20307306713676 268.164074275643 168.03277896980296 294.5312622785573 181.4800448512892C320.89845028147136 194.92731073277542 373.63282628729985 601.4269522752033 400.0000142902139 596.104076197115C426.36720229312823 590.7812001190266 479.1015782989566 137.21612799139697 505.4687663018708 138.89703622658277C531.8359543047849 140.57794446176854 584.5703303106136 589.1002918838409 610.9375183135278 609.5513420786012C637.304706316442 630.0023922733616 690.0390823222701 306.70770837262984 716.4062703251843 302.50543778466533C742.7734583280987 298.3031671967009 795.5078343339269 582.3766589430978 821.8750223368411 575.9331773748856C848.2422103397553 569.4896958066734 900.9765863455839 238.35077347507476 927.3437743484981 250.9575852389681C953.7109623514123 263.5643970028615 1006.4453383572406 672.0250981530061 1032.8125263601548 676.7876714860324C1059.179714363069 681.5502448190588 1111.9140903688976 298.5833185692319 1138.2812783718118 289.05817190317913C1164.6484663747258 279.53302523712637 1230.5664363820113 561.6454573758065 1243.7500303834684 600.5864981576104 " transform="rotate(45, 400, 400)"></path><path d="M-387.49999812245363 484.71602730688664C-375.19531038776034 441.8341905514805 -313.67187171429384 137.73921404820405 -289.0624962449073 141.66133326363754C-264.4531207755207 145.583452479071 -215.2343698367475 511.3864379718343 -190.62499436736096 516.0929810303545C-166.01561889797438 520.7995240888747 -116.79686795920117 177.4833554312634 -92.18749248981459 179.31367773179903C-67.57811702042801 181.14400003233465 -18.359366081654798 523.6757448468593 6.250009387731723 530.7355594346395C30.859384857118357 537.7953740224198 80.07813579589151 241.8061105643726 104.68751126527809 235.79219443404122C129.29688673466467 229.7782783037099 178.51563767343782 487.59224806487117 203.1250131428245 482.62423039198876C227.73438861221098 477.65621271910635 276.95313955098425 183.49727156159474 301.5625150203708 196.0480530509819C326.1718904897573 208.59883454036907 375.39064142853056 587.9984999799684 400.00001689791713 583.030482307086C424.6093923673038 578.0624646342036 473.828143306077 154.73506398174916 498.43751877546345 156.30391166792256C523.0468942448501 157.87275935409596 572.2656451836235 576.4936169480302 596.8750206530101 595.5812637964732C621.4843961223964 614.6689106449162 670.7031470611696 312.92720567089987 695.3125225305562 309.0050864554663C719.9218979999428 305.0829672400329 769.1406489387159 570.2182262033366 793.7500244081025 564.2043100730052C818.3593998774891 558.190393942674 867.5781508162625 249.1273997665151 892.187526285649 260.8937574128156C916.7969017550354 272.66011505911604 966.0156526938088 653.890102799251 990.6250281631953 658.335171243409C1015.2344036325821 662.7802396875669 1064.453154571355 305.3444418543951 1089.0625300407416 296.4543049660792C1113.6719055101282 287.56416807776327 1175.1953441835944 550.8691047405314 1187.500031918288 587.2140761368818 " transform="rotate(42, 400, 400)"></path><path d="M-331.2499982565641 478.66487922951126C-319.8242167886346 438.846030813777 -262.6953094489872 156.47212406073467 -239.8437465131282 160.1140919036372C-216.9921835772692 163.75605974653973 -171.28905770555124 503.4302605612485 -148.4374947696923 507.80062197273145C-125.58593183383334 512.1709833842145 -79.88280596211536 193.37739820214694 -57.03124302625639 195.07698319550144C-34.17968009039748 196.77656818885595 11.52344578132056 514.8417598023431 34.37500871717947 521.3973019195676C57.226571653038434 527.9528440367922 102.92969752475642 253.1056708257483 125.78126046061539 247.52132013329776C148.63282339647435 241.93696944084724 194.33594926819228 481.3356556476398 217.18751220405125 476.7224963799633C240.03907513991032 472.10933711228677 285.74220101162825 198.96174889459746 308.5937639474872 210.61604599188553C331.4453268833462 222.2703430891736 377.1484527550641 574.5700324259444 400.0000156909231 569.9568731582679C422.85157862678216 565.3437138905913 468.5547044985 172.25398471331226 491.40626743435894 173.7107718504733C514.257830370218 175.1675589876343 559.9609562419361 563.8869267534303 582.812519177795 581.611170255556C605.6640821136539 599.3354137576816 651.3672079853718 319.1466877103808 674.2187709212308 315.50471986747823C697.0703338570897 311.8627520245757 742.7734597288077 558.0597782047863 765.6250226646666 552.4754275123357C788.4765856005256 546.8910768198853 834.1797114722438 259.9040107991664 857.0312744081025 270.8299143278739C879.8828373439615 281.75581785658153 925.5859632156796 635.7550921867069 948.4375261515386 639.8826557419964C971.2890890873975 644.0102192972859 1016.9922149591155 312.1055498807692 1039.8437778949744 303.85042277019016C1062.6953408308334 295.5952956596111 1119.8242481704806 540.0927368464672 1131.25002963841 573.8416388573639 " transform="rotate(39, 400, 400)"></path><path d="M-274.99999839067453 472.61371589334703C-264.45312318950886 435.8578558172846 -211.71874718368048 175.20501881447623 -190.62499678134913 178.5668352848478C-169.53124637901774 181.92865175521936 -127.34374557435501 495.47406789187363 -106.24999517202366 499.5082476563195C-85.15624476969231 503.54242742076536 -42.968743965029546 209.2714257142414 -21.87499356269825 210.8402734004148C-0.7812431603668983 212.4091210865882 41.40625764429586 506.00775949903783 62.500008046627215 512.0590291457066C83.59375844895857 518.1102987923755 125.78125925362133 264.405215828335 146.87500965595262 259.25043057376524C167.96876005828398 254.0956453191955 210.15626086294674 475.07904797161945 231.2500112652781 470.8207471091488C252.34376166760944 466.5624462466782 294.53126247227226 214.42621096881112 315.6250128746036 225.18402367400012C336.71876327693496 235.9418363791891 378.90626408159767 561.1415496131315 400.000014483929 556.8832487506608C421.0937648862604 552.62494788819 463.2812656909231 189.77289018608633 484.37501609325454 191.11761677423496C505.4687664955858 192.4623433623836 547.6562673002487 551.2802213000416 568.75001770258 567.6410614558497C589.8437681049114 584.001901611658 632.031268909574 325.3661544910726 653.1250193119052 322.0043380207011C674.2187697142367 318.64252155032955 716.4062705188994 545.901314947447 737.5000209212308 540.7465296928773C758.5937713235621 535.5917444383076 800.781272128225 270.68060657302857 821.8750225305562 280.76605598414324C842.9687729328875 290.85150539525796 885.1562737375505 617.6200663153736 906.2500241398818 621.4301249817947C927.3437745422132 625.2401836482159 969.5312753468756 318.8666426483543 990.6250257492072 311.24652531551203C1011.7187761515383 303.6264079826699 1064.453152157367 529.316353693614 1075.0000273585324 560.4691863190571 " transform="rotate(36, 400, 400)"></path><path d="M-218.749998524785 466.5625678159717C-209.08202959038314 432.86969607958116 -160.74218491837377 193.93792882700689 -141.40624704957003 197.01959392484747C-122.07030918076629 200.10125902268805 -83.39843344315875 487.5178904812878 -64.06249557435501 491.2158885986965C-44.7265577055513 494.9138867161052 -6.054681967943793 225.1654684851249 13.281255900859946 226.6035788641172C32.617193769663686 228.0416892431095 71.28906950727122 497.17377445452166 90.62500737607496 502.7207716306347C109.96094524487864 508.2677688067478 148.63282098248618 275.7047760897107 167.96875885128992 270.9795562730218C187.30469672009366 266.2543364563329 225.97657245770125 468.8224555543881 245.312510326505 464.9190130971234C264.6484481953087 461.01557063985865 303.32032393291627 229.89068830181384 322.6562618017199 239.75201661490374C341.99219967052363 249.61334492799367 380.6640754081312 547.7130820591074 400.00001327693496 543.8096396018427C419.3359511457386 539.9061971445778 458.0078268833462 207.29181091764946 477.3437647521499 208.5244769567857C496.67970262095366 209.75714299592192 535.3515783585613 538.6735311054417 554.6875162273649 553.6709679149326C574.0234540961687 568.6684047244235 612.6953298337762 331.58563653055353 632.0312677025798 328.50397143271294C651.3672055713836 325.42230633487236 690.0390813089911 533.7428669488968 709.3750191777949 529.0176471322078C728.7109570465985 524.2924273155189 767.3828327842061 281.45721760567983 786.7187706530099 290.70221289920164C806.0547085218136 299.9472081927234 844.7265842594211 599.4850557028294 864.062522128225 602.9776094803822C883.3984599970286 606.4701632579348 922.070335734636 325.6277506747284 941.4062736034398 318.642643119623C960.7422114722435 311.6575355645177 1009.0820561442529 518.5399857995498 1018.7500250786547 547.0967490395393 " transform="rotate(33, 400, 400)"></path><path d="M-162.49999865889546 460.5114807737527C-153.7109359912574 429.88159737703404 -109.76562265306706 212.67089987469376 -92.18749731779093 215.4724136000034C-74.6093719825148 218.27392732531302 -39.45312131196249 479.56177410585815 -21.874995976686392 482.92359057622974C-4.2968706414102655 486.2854070466013 30.859380029142017 241.0595722911647 48.43750536441814 242.36694536297586C66.01563069969427 243.674318434787 101.17188137024658 488.3398504451617 118.75000670552271 493.382575150719C136.32813204079883 498.42529985627635 171.4843827113511 287.00439738624266 189.06250804662727 282.7087430074346C206.6406333819034 278.4130886286265 241.7968840524556 462.5659241723131 259.3750093877317 459.0173401202542C276.95313472300785 455.4687560681954 312.10938539356016 245.3552266699728 329.6875107288363 254.32007059096364C347.2656360641124 263.28491451195447 382.4218867346648 534.2846755402397 400.0000120699408 530.7360914881808C417.5781374052169 527.1875074361219 452.7343880757693 224.81079268436883 470.3125134110454 225.93139817449267C487.89063874632154 227.05200366461654 523.0468894168739 526.0669019459981 540.62501475215 539.7009354091717C558.203140087426 553.3349688723451 593.3593907579783 337.8051796051907 610.9375160932545 335.00366587988105C628.5156414285306 332.2021521545714 663.6718920990828 521.5844799855026 681.2500174343588 517.2888256066946C698.8281427696351 512.9931712278865 733.9843934401874 292.23388967348734 751.5625187754634 300.63843084941624C769.1406441107397 309.04297202534514 804.296894781292 581.3501061254415 821.8750201165681 584.5251550141259C839.4531454518442 587.70020390281 874.6093961223964 332.38891973625874 892.1875214576726 326.03882195889025C909.7656467929487 319.68872418152176 953.710960131139 507.76367894064185 962.5000227987771 533.7243727951777 " transform="rotate(30, 400, 400)"></path><path d="M-106.24999879300591 454.46032506698293C-98.33984239213166 426.8934300099361 -58.789060387760344 231.40380225782985 -42.96874758601183 233.9251646106085C-27.148434784263316 236.44652696338716 4.492190819233741 471.60558906587784 20.312503620982255 474.63122388921227C36.13281642273077 477.65685871254664 67.77344202622783 256.9536074326537 83.59375482797631 258.13024319728373C99.41406762972483 259.30687896191375 131.05469323322188 479.50585777125104 146.8750060349704 484.04431000625266C162.6953188367189 488.5827622412542 194.335944440216 298.3039500182239 210.1562572419645 294.4378610772966C225.97657004371302 290.5717721363693 257.61719564721005 456.3093241256872 273.43750844895857 453.1155984788343C289.2578212507071 449.9218728319813 320.8984468542042 260.819696373581 336.7187596559526 268.88805590247273C352.53907245770114 276.95641543136446 384.1796980611982 520.8562003568212 400.00001086294674 517.6624747099683C415.82032366469525 514.4687490631153 447.4609492681923 242.3297057865374 463.2812620699408 243.33825072764887C479.1015748716893 244.34679566876036 510.74220047518645 513.4602041220038 526.562513276935 525.73083423886C542.3828260786835 538.0014643557162 574.0234516821805 344.0246540152771 589.843764483929 341.50329166249844C605.6640772856775 338.98192930971976 637.3047028891746 509.42602435755794 653.125015690923 505.5599354166306C668.9453284926716 501.69384647570337 700.5859540961687 303.01049307674407 716.4062668979171 310.57458013508005C732.2265796996656 318.1386671934161 763.8672053031628 563.215087883503 779.6875181049114 566.0726318833188C795.5078309066598 568.9301758831346 827.1484565101568 339.15002013323834 842.9687693119052 333.4349321336067C858.7890821136539 327.7198441339751 898.3398641180252 496.98730341718317 906.2500205188994 520.3519278862655 " transform="rotate(27, 400, 400)"></path><path d="M-49.99999892711637 448.40914647202953C-42.968748793005915 423.90523975465453 -7.812498122453647 250.13668175278235 6.250002145767269 252.37789273303002C20.31250241398817 254.61910371327775 48.43750295043 463.64938113771393 62.500003218650875 466.33883431401114C76.56250348687178 469.02828749030834 104.68750402331364 272.8476196859591 118.75000429153451 273.893518143408C132.8125045597554 274.93941660085693 160.93750509619724 470.6718422091567 175.00000536441814 474.70602197360256C189.06250563263904 478.7402017380484 217.1875061690809 309.6034797620215 231.2500064373018 306.166956258975C245.31250670552265 302.7304327559285 273.4375072419645 450.05270119087777 287.5000075101854 447.2138339492307C301.56250777840626 444.37496670758367 329.6875083148482 276.2841431890056 343.7500085830691 283.45601832579825C357.8125088512899 290.6278934625909 385.93750938773184 507.4277022852191 400.0000096559526 504.588835043572C414.0625099241736 501.7499678019249 442.1875104606154 259.84859600052243 456.2500107288363 260.7450803926215C470.3125109970572 261.6415647847206 498.4375115334991 500.8534834098258 512.50001180172 511.76071018036464C526.5625120699409 522.6679369509035 554.6875126063827 350.2441055371799 568.7500128746036 348.00289455693223C582.8125131428245 345.7616835766845 610.9375136792662 497.2675458414295 625.0000139474871 493.83102233838304C639.062514215708 490.39449883533655 667.1875147521499 313.7870735918172 681.2500150203708 320.51070653256033C695.3125152885917 327.23433947330346 723.4375158250336 545.0800467533807 737.5000160932545 547.620085864328C751.5625163614753 550.1601249752754 779.6875168979171 345.91109764203435 793.7500171661382 340.83101942013957C807.8125174343589 335.75094119824473 842.9687681049112 486.2109050055408 850.0000182390216 506.97946008916955 " transform="rotate(24, 400, 400)"></path><path d="M6.2500009387731765 442.3580136534433C12.402344806119821 420.9170952757403 43.164064142853064 268.86960702410204 55.46875187754634 270.83066663181876C67.77343961223966 272.7917262395355 92.38281508162623 455.69321898591716 104.68750281631952 458.04649051517725C116.99219055101281 460.39976204443735 141.60156602039942 288.7416777156317 153.9062537550927 289.65683886589954C166.210941489786 290.5720000161673 190.8203169591726 461.83787242342964 203.12500469386586 465.36777971731976C215.42969242855918 468.8976870112099 240.03906789794576 320.9030552821863 252.34375563263904 317.8960972170206C264.64844336733233 314.8891391518549 289.2578188367189 443.7961240324356 301.56250657141226 441.31211519599435C313.8671943061055 438.8281063595532 338.4765697754921 291.7486357807974 350.7812575101854 298.02402652549097C363.08594524487864 304.29941727018456 387.6953207142653 493.9992499899842 400.00000844895857 491.515241153543C412.3046961836519 489.0312323171018 436.9140716530385 277.36753199087457 449.2187593877317 278.15195583396127C461.52344712242507 278.93637967704797 486.13282259181176 488.2468084740151 498.43751032650505 497.7906318982366C510.7421980611982 507.3344553224581 535.3515735305848 356.46360283544993 547.6562612652781 354.50254322773316C559.9609489999714 352.54148362001644 584.570324469358 485.1091131016683 596.8750122040512 482.1021550365026C609.1796999387445 479.095196971337 633.7890754081312 324.5636998832575 646.0937631428245 330.4468787064078C658.3984508775177 336.330057529558 683.0078263469044 526.9450513996255 695.3125140815977 529.1675856217046C707.6172018162911 531.3901198437834 732.2265772856775 352.67222092719754 744.5312650203708 348.2271524830396C756.8359527550641 343.78208403888164 787.5976720917972 475.4345523702657 793.750015959144 493.6070380684409 " transform="rotate(21, 400, 400)"></path><path d="M62.500000804662726 436.30686557606805C67.77343840524557 417.92893553803685 94.14062640815976 287.60251703663266 104.68750160932544 289.28342527181843C115.23437681049113 290.9643335070042 136.3281272128225 447.7370415753313 146.87500241398817 449.7541314575543C157.42187761515385 451.7712213397772 178.51562801748523 304.6357204865152 189.06250321865087 305.42014432960195C199.60937841981655 306.2045681726886 220.70312882214793 453.0038873789134 231.2500040233136 456.02952220224785C241.79687922447928 459.0551570255823 262.89062962681066 332.20261554356205 273.43750482797634 329.62522291627715C283.984380029142 327.04783028899226 305.07813043147337 437.5395316152043 315.62500563263904 435.4103811839689C326.1718808338047 433.2812307527336 347.26563123613613 307.2131131138001 357.8125064373018 312.5920194663946C368.3593816384675 317.9709258189891 389.45313204079883 480.57078243596027 400.0000072419645 478.4416320047249C410.5468824431302 476.31248157348955 431.64063284546154 294.8864527224377 442.1875080466273 295.558816016512C452.7343832477929 296.2311793105863 473.82813365012436 475.64011827941533 484.37500885129 483.8205383573194C494.9218840524557 492.00095843522354 516.015634454787 362.68308487493084 526.5625096559527 361.0021766397451C537.1093848571184 359.3212684045593 558.2031352594497 472.950665103118 568.7500104606154 470.3732724758332C579.2968856617811 467.79587984854834 600.3906360641125 335.34031091590884 610.9375112652781 340.38303562146615C621.4843864664438 345.4257603270235 642.5781368687752 508.81004078708133 653.1250120699409 510.7150701202919C663.6718872711066 512.6200994535025 684.7656376734378 359.4333289535717 695.3125128746036 355.62327028715055C705.8593880757692 351.8132116207295 732.2265760786835 464.65818447620154 737.5000136792662 480.2346007889231 " transform="rotate(18, 400, 400)"></path><path d="M118.75000067055227 430.25573275748184C123.1445320043713 414.9407910591225 145.11718867346647 306.33544230795235 153.90625134110454 307.73619917060716C162.6953140087426 309.136956033262 180.27343934401875 439.78087942353454 189.06250201165682 441.46178765872037C197.85156467929488 443.1426958939061 215.429690014571 320.52977851618783 224.21875268220907 321.1834650520934C233.00781534984714 321.83715158799896 250.5859406851233 444.1699175931863 259.3750033527614 446.691279945965C268.16406602039945 449.2126422987436 285.7421913556756 343.5021910637268 294.53125402331364 341.35436387432276C303.3203166909517 339.2065366849187 320.8984420262278 431.282954456762 329.6875046938659 429.50866243073256C338.47656736150395 427.73437040470316 356.0546926967801 322.6776057055919 364.84375536441814 327.1600276660873C373.6328180320562 331.6424496265827 391.2109433673324 467.14233014072533 400.0000060349704 465.3680381146959C408.78906870260846 463.5937460886664 426.36719403788464 312.4053887127899 435.1562567055227 312.9656914578518C443.94531937316077 313.52599420291375 461.52344470843695 463.0334433436045 470.312507376075 469.85046007519134C479.101570043713 476.66747680677804 496.67969537898915 368.9025821732008 505.4687580466273 367.501825310546C514.2578207142653 366.1010684478912 531.8359460495415 460.7922323633568 540.6250087171794 458.64440517395275C549.4140713848176 456.4965779845487 566.9921967200937 346.1169372073491 575.7812593877318 350.31920779531356C584.5703220553698 354.52147838327807 602.148447390646 490.6750454333262 610.937510058284 492.2625698776684C619.7265727259221 493.8500943220105 637.3046980611982 366.19445223873487 646.0937607288363 363.0194033500506C654.8828233964744 359.8443544613663 676.8554800655695 453.8818318409264 681.2500113993885 466.8621787681943 " transform="rotate(15, 400, 400)"></path><path d="M175.0000005364418 424.2045694213175C178.51562560349703 411.95261606263 196.09375093877318 325.0683370616939 203.12500107288363 326.1889425518178C210.15625120699409 327.30954804194164 224.21875147521502 431.8246867541597 231.25000160932544 433.1694133423083C238.2812517434359 434.5141399304569 252.34375201165682 336.4238060282823 259.37500214576727 336.94675525700677C266.4062522798777 337.4697044857312 280.4687525480986 435.3359172898811 287.5000026822091 437.353007172104C294.5312528163195 439.37009705432695 308.5937530845405 354.8017360663135 315.62500321865093 353.08347431479024C322.6562533527613 351.365212563267 336.7187536209823 425.0263467807416 343.75000375509273 423.6069131599181C350.78125388920313 422.18747953909457 364.8437541574241 338.14206777980553 371.87500429153454 341.72800534820186C378.906254425645 345.3139429165982 392.9687546938659 453.7138473279123 400.00000482797634 452.2944137070887C407.0312549620868 450.87498008626517 421.0937552303077 329.92429418556395 428.12500536441814 330.3725363816135C435.1562554985286 330.820778577663 449.21875576674955 450.42673789021563 456.25000590086 455.88035127548505C463.28125603497045 461.3339646607545 477.34375630319136 375.1220489538927 484.3750064373018 374.00144346376885C491.40625657141226 372.880837973645 505.4687568396331 448.6337691060175 512.5000069737436 446.91550735449425C519.531257107854 445.197245602971 533.593757376075 356.89353298121137 540.6250075101855 360.2553494515829C547.6562576442959 363.61716592195444 561.7187579125168 472.54001956199306 568.7500080466273 473.8100391174667C575.7812581807377 475.0800586729404 589.8437584489586 372.95554500631994 596.8750085830691 370.4155058953725C603.9062587171795 367.8754667844251 621.4843840524557 443.1054486880731 625.0000091195109 453.48972622988754 " transform="rotate(12, 400, 400)"></path><path d="M231.25000040233135 418.153432788034C233.88671920262277 408.9644677690184 247.07031320407987 343.80125851831633 252.3437508046627 344.64171263590924C257.61718840524554 345.4821667535021 268.1640636064112 423.86852078766566 273.43750120699406 424.87706572877715C278.7109388075769 425.8856106698886 289.2578140087426 352.3178602432576 294.5312516093254 352.710072164801C299.80468920990825 353.1022840863443 310.351564411074 426.5019436894567 315.6250020116568 428.0147611011239C320.89843961223966 429.52757851279114 331.44531481340533 366.101307771781 336.71875241398817 364.8126114581386C341.992190014571 363.52391514449613 352.5390652157367 418.76976580760214 357.8125028163195 417.70519059198443C363.08594041690236 416.6406153763668 373.6328156180681 353.60655655690005 378.90625321865093 356.2960097331973C384.17969081923377 358.9854629094946 394.72656602039945 440.28539121798013 400.0000036209823 439.2208160023624C405.2734412215651 438.1562407867448 415.8203164227308 347.4432263612189 421.09375402331364 347.77940800825604C426.3671916238965 348.11558965529315 436.91406682506215 437.82005913970767 442.187504425645 441.9102691786597C447.4609420262278 446.00047921761177 458.0078172273935 381.3415424374654 463.28125482797634 380.50108831987257C468.5546924285592 379.66063420227965 479.10156762972485 436.475332551559 484.3750052303077 435.18663623791656C489.64844283089053 433.89793992427417 500.19531803205626 367.6701554579544 505.46875563263904 370.1915178107331C510.7421932332219 372.7128801635117 521.2890684343877 454.40502039354067 526.5625060349705 455.35753506014595C531.8359436355533 456.31004972675123 542.3828188367189 379.7166644767858 547.6562564373019 377.81163514357524C552.9296940378846 375.90660581036474 566.1132880393418 432.32909223810077 568.7500068396331 440.11730039446155 " transform="rotate(9, 400, 400)"></path><path d="M287.49999263882637 412.102288525356C289.257805172354 405.97631184601227 298.04686783999205 362.5341723455442 301.5624929070473 363.0944750906061C305.0781179741025 363.6547778356681 312.10936810821295 415.9123471917771 315.6249931752682 416.5847104858514C319.1406182423234 417.25707377992575 326.17186837643385 368.21190682883844 329.6874934434891 368.47338144320065C333.2031185105443 368.73485605756287 340.23436864465475 417.6679624596378 343.74999371171 418.6765074007493C347.2656187787652 419.68505234186074 354.2968689128757 377.400871847854 357.81249397993093 376.5417409720924C361.3281190469861 375.6826100963308 368.3593691810966 412.5131772050681 371.87499424815184 411.8034603946563C375.390619315207 411.0937435842445 382.4218694493175 369.07103770460003 385.93749451637274 370.86400648879817C389.45311958342796 372.65697527299636 396.4843697175384 426.8569274786534 399.99999478459364 426.14721066824166C403.51561985164886 425.43749385782985 410.5468699857593 364.9621509074792 414.06249505281454 365.186272005504C417.57812011986977 365.4103931035288 424.6093702539803 425.2133727598051 428.1249953210355 427.9401794524398C431.6406203880907 430.6669861450745 438.6718705222012 387.5610282916436 442.1874955892564 387.0007255465817C445.7031206563116 386.44042280151973 452.734370790422 424.31688836770604 456.24999585747724 423.4577574919444C459.76562092453247 422.59862661618274 466.796871058643 378.44677030530295 470.3124961256982 380.1276785404887C473.82812119275343 381.8085867756745 480.8593713268639 436.2700135956938 484.3749963939191 436.9050233734306C487.89062146097433 437.54003315116745 494.9218715950848 386.4777763178572 498.43749666214 385.2077567623835C501.95312172919523 383.9377372069098 510.7421843968333 421.5527281587338 512.4999969303609 426.74486692964103 " transform="rotate(6, 400, 400)"></path><path d="M343.75000013411045 406.051144262678C344.62890640087426 402.98815592300616 349.0234377346933 381.2670861727721 350.7812502682209 381.54723754530306C352.5390628017485 381.827388917834 356.05468786880374 407.9561735958886 357.81250040233135 408.29235524292574C359.57031293585896 408.62853688996285 363.0859380029142 384.1059534144192 364.8437505364418 384.2366907216003C366.6015630699694 384.36742802878143 370.11718813702464 408.8339812298189 371.87500067055225 409.33825370037465C373.63281320407987 409.84252617093034 377.1484382711351 388.700435923927 378.9062508046627 388.2708704860462C380.6640633381903 387.8413050481654 384.17968840524554 406.25658860253407 385.93750093877316 405.90173019732816C387.69531347230077 405.54687179212226 391.210938539356 384.5355188523 392.9687510728836 385.4320032443991C394.7265636064112 386.32848763649815 398.24218867346644 413.42846373932673 400.00000120699406 413.0736053341208C401.75781374052167 412.7187469289149 405.2734388075769 382.4810754537396 407.0312513411045 382.593136002752C408.7890638746321 382.7051965517644 412.3046889416874 412.60668637990256 414.062501475215 413.9700897262199C415.8203140087426 415.33349307253724 419.33593907579785 393.7805141458218 421.09375160932547 393.5003627732908C422.8515641428531 393.22021140075987 426.36718920990825 412.158444183853 428.12500174343586 411.7288787459722C429.8828142769635 411.29931330809137 433.39843934401875 389.2233851526515 435.15625187754637 390.06383927024433C436.914064411074 390.90429338783724 440.4296894781292 418.1350067978469 442.1875020116568 418.4525116867153C443.94531454518443 418.7700165755837 447.46093961223966 393.2388881589286 449.21875214576727 392.60387838119175C450.9765646792949 391.9688686034549 455.3710960131139 410.7763640793669 456.2500022798777 413.3724334648205 " transform="rotate(3, 400, 400)"></path></g></svg>